<svg aria-hidden="true" style="position: absolute; width: 0; height: 0; overflow: hidden;" version="1.1" xmlns="http://www.w3.org/2000/svg" xmlns:xlink="http://www.w3.org/1999/xlink">
<defs>
<symbol id="icon-arrow_right" viewBox="0 0 16 32">
<path d="M0.508 31.481c0.677 0.692 1.775 0.692 2.451 0l11.518-11.781c2.030-2.077 2.031-5.444 0.001-7.521l-11.389-11.659c-0.677-0.692-1.774-0.692-2.451 0s-0.677 1.815 0 2.508l11.392 11.653c0.677 0.692 0.677 1.815 0 2.508l-11.522 11.786c-0.677 0.692-0.677 1.815 0 2.508z"></path>
</symbol>
<symbol id="icon-cart" viewBox="0 0 29 32">
<path d="M21.224 7.273c-0.028-0.117-0.056-0.235-0.086-0.353-0.389-1.536-1.002-3.205-2.002-4.52-1.031-1.356-2.536-2.4-4.59-2.4s-3.56 1.044-4.59 2.4c-1 1.315-1.613 2.984-2.002 4.52-0.030 0.118-0.059 0.235-0.086 0.353h-2.36c-2.329 0-4.26 1.781-4.415 4.073l-1.082 16c-0.17 2.519 1.855 4.654 4.415 4.654h20.241c2.559 0 4.585-2.135 4.415-4.654l-1.081-16c-0.155-2.292-2.085-4.073-4.415-4.073h-2.36zM8.646 14.545c0.845 0 1.472-0.628 1.475-1.457 0-0.035 0.001-0.069 0.001-0.104 0.001-0.077 0.004-0.192 0.009-0.342 0.011-0.299 0.033-0.73 0.076-1.249 0.031-0.368 0.073-0.777 0.129-1.212h8.416c0.056 0.434 0.098 0.843 0.129 1.212 0.044 0.519 0.066 0.95 0.076 1.249 0.005 0.149 0.008 0.265 0.009 0.342 0.001 0.036 0.001 0.071 0.001 0.107 0 0 0 1.454 1.475 1.454s1.475-1.457 1.475-1.457c-0-0.051-0.001-0.102-0.002-0.153-0.001-0.094-0.005-0.228-0.011-0.397-0.012-0.338-0.037-0.815-0.085-1.387-0.025-0.298-0.057-0.624-0.097-0.97h1.86c0.776 0 1.42 0.594 1.472 1.358l1.082 16c0.057 0.84-0.618 1.551-1.472 1.551h-20.241c-0.853 0-1.528-0.712-1.472-1.551l1.082-16c0.052-0.764 0.695-1.358 1.472-1.358h1.86c-0.040 0.346-0.072 0.672-0.098 0.97-0.048 0.572-0.073 1.049-0.085 1.387-0.006 0.169-0.009 0.303-0.011 0.397-0.001 0.050-0.002 0.1-0.002 0.15-0.001 0.83 0.632 1.46 1.475 1.46zM10.908 7.273h7.275c-0.341-1.232-0.805-2.335-1.407-3.127-0.628-0.826-1.335-1.236-2.231-1.236s-1.602 0.41-2.231 1.236c-0.602 0.792-1.066 1.896-1.407 3.127z"></path>
</symbol>
<symbol id="icon-close" viewBox="0 0 32 32">
<path fill="#754e29" style="fill: var(--color1, #754e29)" d="M0.885 0.885c-1.181 1.181-1.181 3.095 0 4.276l10.839 10.839-10.839 10.839c-1.181 1.181-1.181 3.095 0 4.276s3.095 1.181 4.276 0l10.839-10.839 10.839 10.839c1.181 1.181 3.095 1.181 4.276 0s1.181-3.095 0-4.276l-10.839-10.839 10.839-10.839c1.181-1.181 1.181-3.095 0-4.276s-3.095-1.181-4.276 0l-10.839 10.839-10.839-10.839c-1.181-1.181-3.095-1.181-4.276 0z"></path>
</symbol>
<symbol id="icon-email" viewBox="0 0 44 32">
<path d="M38 0c3.314 0 6 2.686 6 6v20c0 3.314-2.686 6-6 6h-32c-3.314 0-6-2.686-6-6v-20c0-3.314 2.686-6 6-6h32zM36.506 4h-29.011l13.266 10.473c0.727 0.574 1.752 0.574 2.479 0l13.266-10.473zM4 6.338v19.662c0 1.105 0.895 2 2 2h32c1.105 0 2-0.895 2-2v-19.662l-14.282 11.275c-2.18 1.721-5.256 1.721-7.436 0l-14.282-11.275z"></path>
</symbol>
<symbol id="icon-facebook" viewBox="0 0 32 32">
<path d="M27.636 0h-23.273c-2.41 0-4.364 1.954-4.364 4.364v23.273c0 2.41 1.954 4.364 4.364 4.364h23.273c2.41 0 4.364-1.954 4.364-4.364v-23.273c0-2.41-1.954-4.364-4.364-4.364zM27.636 2.909c0.803 0 1.455 0.651 1.455 1.455v23.273c0 0.803-0.651 1.455-1.455 1.455h-7.273v-10.182h3.020c0.626 0 1.182-0.401 1.38-0.995l0.644-1.933c0.235-0.706-0.29-1.436-1.035-1.436h-4.009v-2.909c0-0.727 0.727-1.455 1.455-1.455h2.909c0.803 0 1.455-0.651 1.455-1.455v-0.998c0-0.47-0.3-0.891-0.754-1.011-1.907-0.503-3.609-0.503-3.609-0.503-3.636 0-5.818 2.512-5.818 4.694v3.636h-2.909c-0.803 0-1.455 0.651-1.455 1.455v1.455c0 0.803 0.651 1.455 1.455 1.455h2.909v10.182h-11.636c-0.803 0-1.455-0.651-1.455-1.455v-23.273c0-0.803 0.651-1.455 1.455-1.455h23.273z"></path>
</symbol>
<symbol id="icon-instagram" viewBox="0 0 32 32">
<path d="M16 24.727c-4.82 0-8.727-3.907-8.727-8.727s3.907-8.727 8.727-8.727c4.82 0 8.727 3.907 8.727 8.727s-3.907 8.727-8.727 8.727zM16 21.818c3.213 0 5.818-2.605 5.818-5.818s-2.605-5.818-5.818-5.818c-3.213 0-5.818 2.605-5.818 5.818s2.605 5.818 5.818 5.818z"></path>
<path d="M24.727 5.818c-0.803 0-1.455 0.651-1.455 1.455s0.651 1.455 1.455 1.455c0.803 0 1.455-0.651 1.455-1.455s-0.651-1.455-1.455-1.455z"></path>
<path d="M0.951 4.765c0.837-1.642 2.172-2.977 3.814-3.814 1.867-0.951 4.311-0.951 9.198-0.951h4.073c4.888 0 7.332 0 9.198 0.951 1.642 0.837 2.977 2.172 3.814 3.814 0.951 1.867 0.951 4.311 0.951 9.198v4.073c0 4.888 0 7.332-0.951 9.198-0.837 1.642-2.172 2.977-3.814 3.814-1.867 0.951-4.311 0.951-9.198 0.951h-4.073c-4.888 0-7.332 0-9.198-0.951-1.642-0.837-2.977-2.172-3.814-3.814-0.951-1.867-0.951-4.311-0.951-9.198v-4.073c0-4.888 0-7.332 0.951-9.198zM18.036 2.909h-4.073c-2.492 0-4.186 0.002-5.495 0.109-1.275 0.104-1.928 0.293-2.383 0.525-1.095 0.558-1.985 1.448-2.543 2.543-0.232 0.455-0.421 1.107-0.525 2.383-0.107 1.309-0.109 3.003-0.109 5.495v4.073c0 2.492 0.002 4.186 0.109 5.495 0.104 1.276 0.293 1.928 0.525 2.383 0.558 1.095 1.448 1.985 2.543 2.543 0.455 0.232 1.107 0.421 2.383 0.525 1.309 0.107 3.003 0.109 5.495 0.109h4.073c2.492 0 4.186-0.002 5.495-0.109 1.276-0.104 1.928-0.293 2.383-0.525 1.095-0.558 1.985-1.448 2.543-2.543 0.232-0.455 0.421-1.107 0.525-2.383 0.107-1.309 0.109-3.003 0.109-5.495v-4.073c0-2.492-0.002-4.186-0.109-5.495-0.104-1.275-0.293-1.928-0.525-2.383-0.558-1.095-1.448-1.985-2.543-2.543-0.455-0.232-1.107-0.421-2.383-0.525-1.309-0.107-3.003-0.109-5.495-0.109z"></path>
</symbol>
<symbol id="icon-logo" viewBox="0 0 23 32">
<path d="M14.043 0.393c-0.21 0.223-0.709 0.694-1.107 1.057-1.326 1.196-1.596 1.624-1.632 2.603-0.027 0.795 0.165 1.397 0.663 2.083 0.133 0.183 0.242 0.323 0.242 0.306 0-0.013-0.082-0.183-0.183-0.376-0.384-0.734-0.498-1.624-0.288-2.258 0.197-0.594 0.485-0.952 1.459-1.812 0.206-0.179 0.457-0.428 0.562-0.546l0.197-0.218-0.027 0.917c-0.014 0.607-0.046 1.026-0.096 1.244-0.169 0.738-0.498 1.323-1.097 1.965-0.434 0.467-0.558 0.734-0.439 0.952 0.018 0.039 0.050 0.205 0.069 0.362l0.027 0.288-0.261 0.166c-0.882 0.559-1.504 1.367-1.756 2.284-0.069 0.245-0.096 0.48-0.096 0.86-0.005 0.808 0.151 1.48 0.544 2.327l0.206 0.445-0.073 0.349c-0.073 0.354-0.096 1.406-0.032 1.681 0.023 0.109 0.050 0.131 0.165 0.131h0.137l0.032-0.563c0.119-2.009 0.814-3.175 2.446-4.105 1.257-0.716 1.628-1.118 2.465-2.672 0.658-1.236 0.869-1.563 1.376-2.188l0.288-0.354-0.407 0.166c-0.658 0.271-1.605 0.541-2.748 0.786-1.097 0.231-1.596 0.367-1.975 0.55-0.119 0.057-0.229 0.105-0.242 0.105s-0.018-0.175-0.005-0.393c0.023-0.467 0.027-0.476 0.736-1.183 0.384-0.38 0.544-0.581 0.677-0.83 0.293-0.555 0.316-0.716 0.284-1.786-0.032-1.004 0.023-1.659 0.206-2.389 0.046-0.188 0.082-0.345 0.078-0.349s-0.183 0.175-0.393 0.393zM16.151 7.24c-0.919 1.616-1.559 2.301-3.027 3.249-0.288 0.188-0.626 0.424-0.75 0.52-0.453 0.358-0.969 1.065-1.166 1.594-0.046 0.127-0.096 0.214-0.11 0.192-0.073-0.109-0.27-1-0.316-1.415-0.151-1.376 0.384-2.581 1.509-3.389 0.645-0.467 1.23-0.681 2.41-0.886 0.503-0.087 1.303-0.31 1.646-0.454 0.078-0.031 0.142-0.052 0.151-0.048 0.005 0.004-0.151 0.293-0.348 0.638z"></path>
<path d="M5.998 1.484c0.273 0.984 0.354 2.274 0.223 3.481-0.164 1.504-0.027 1.959 0.945 3.196 0.264 0.332 0.559 0.765 0.664 0.958 0.295 0.573 0.455 1.386 0.459 2.366v0.407l-0.109-0.044c-0.255-0.092-0.714-0.131-1.868-0.153-0.673-0.013-1.368-0.044-1.545-0.061-0.173-0.022-0.323-0.031-0.327-0.026-0.009 0.004 0.082 0.074 0.205 0.157 0.514 0.354 1.032 0.813 1.632 1.447 0.354 0.372 0.777 0.783 0.945 0.91 0.718 0.547 1.541 0.866 2.536 0.979 0.409 0.048 0.245-0.101-0.445-0.389-1.1-0.463-1.65-0.84-2.495-1.701-0.318-0.324-0.704-0.669-0.854-0.77l-0.273-0.175h0.536c1.409 0 2.204 0.262 2.881 0.949 0.336 0.337 0.577 0.756 0.7 1.207 0.036 0.144 0.077 0.271 0.091 0.284 0.045 0.039 0.032-0.516-0.018-0.822-0.105-0.634-0.632-1.334-1.236-1.64l-0.264-0.131v-0.722c0-1.434-0.132-1.928-0.823-3.048-0.914-1.487-1.063-2.073-1.036-4.132 0.009-0.638 0.023-1.163 0.027-1.159 0 0.004 0.095 0.127 0.205 0.271 0.114 0.144 0.518 0.577 0.904 0.962 0.936 0.931 1.295 1.469 1.518 2.278 0.25 0.888 0.045 2.13-0.545 3.328-0.109 0.223-0.191 0.407-0.186 0.407 0.009 0 0.086-0.105 0.177-0.236 0.714-1.032 1.073-2.195 1.018-3.284-0.032-0.595-0.155-1.058-0.414-1.574-0.264-0.533-0.568-0.91-1.45-1.788-0.686-0.687-1.159-1.194-1.654-1.754l-0.191-0.219 0.068 0.24z"></path>
<path d="M14.194 12.201c-1.044 0.213-1.754 1.1-1.758 2.186 0 0.217-0.009 0.235-0.142 0.278-0.238 0.078-0.064 0.117 0.673 0.148 1.053 0.043 1.699-0.074 2.248-0.413 0.151-0.091 0.531-0.383 0.847-0.648 0.641-0.53 0.971-0.756 1.511-1.030l0.362-0.183-0.44-0.030c-0.238-0.013-0.664-0.070-0.948-0.117s-0.733-0.126-0.998-0.17c-0.559-0.096-0.962-0.104-1.355-0.022zM15.705 12.745c0.224 0.052 0.572 0.109 0.765 0.122l0.357 0.030-0.499 0.383c-0.76 0.582-1.264 0.848-1.909 1.004-0.33 0.083-1.804 0.296-1.836 0.265-0.041-0.039 0.092-0.443 0.252-0.761 0.279-0.552 0.806-0.948 1.47-1.108 0.339-0.083 0.87-0.057 1.401 0.065z"></path>
<path d="M3.979 16.957c-0.055 2.362 0.073 3.16 0.692 4.35 0.325 0.623 0.853 1.352 1.228 1.694 0.092 0.083 0.165 0.162 0.165 0.176 0 0.018-1.141 0.022-2.53 0.013-1.393-0.009-2.581 0-2.64 0.013-0.055 0.013-0.128 0.075-0.156 0.132-0.041 0.092-0.037 0.123 0.032 0.198 0.083 0.088 0.133 0.088 10.346 0.088 6.99 0 10.291-0.013 10.355-0.044 0.119-0.061 0.119-0.29 0-0.351-0.060-0.026-1.004-0.044-2.755-0.044h-2.663l0.28-0.32c0.798-0.9 1.316-1.887 1.655-3.147 0.096-0.347 0.105-0.496 0.119-2.252l0.023-1.874h-14.118l-0.032 1.37z"></path>
<path d="M2.077 24.215c1.549 0.698 3.936 1.267 6.163 1.47 0.394 0.039 0.573 0.069 0.504 0.086-0.096 0.026-0.101 0.030-0.023 0.034 0.050 0.004 0.362 0.026 0.687 0.052 1.677 0.116 5.27 0.047 5.169-0.103-0.014-0.022-0.009-0.030 0.018-0.017 0.023 0.013 0.105 0.009 0.179-0.013 0.128-0.034 0.128-0.034-0.050-0.043-0.11-0.004 0.124-0.056 0.573-0.129 1.398-0.224 2.548-0.496 3.492-0.823 0.541-0.19 1.59-0.621 1.663-0.69 0.023-0.022-3.556-0.039-9.394-0.034l-9.44 0.004 0.458 0.207z"></path>
<path d="M1.776 30.614h-0.062c-0.002 0-0.007 0.001-0.016 0.003-0.007 0.002-0.015 0.004-0.024 0.008-0.009 0.002-0.018 0.004-0.027 0.006s-0.014 0.002-0.016 0.002c-0.091 0.009-0.183 0.014-0.276 0.016-0.093 0.004-0.186 0.006-0.279 0.006-0.020 0-0.045-0.001-0.075-0.003-0.029 0-0.056-0.004-0.083-0.011-0.027-0.009-0.050-0.021-0.070-0.038s-0.029-0.039-0.029-0.070c0-0.023 0.005-0.046 0.016-0.070s0.026-0.039 0.046-0.048c0.018-0.002 0.049-0.004 0.094-0.005s0.091-0.004 0.139-0.005c0.050-0.004 0.097-0.006 0.142-0.008 0.045-0.004 0.076-0.007 0.094-0.011 0.011 0 0.025 0 0.043 0 0.018-0.002 0.036-0.004 0.054-0.008 0.020-0.005 0.037-0.012 0.051-0.019 0.016-0.007 0.029-0.017 0.038-0.029 0.021-0.045 0.032-0.092 0.032-0.142v-0.297c0-0.005 0.001-0.018 0.003-0.038 0.004-0.020 0.006-0.041 0.008-0.064 0.004-0.023 0.007-0.046 0.011-0.067s0.005-0.035 0.005-0.040c0.009-0.186 0.014-0.372 0.016-0.56s0.003-0.374 0.003-0.56c0-0.079-0.001-0.155-0.003-0.23s-0.003-0.15-0.003-0.225c0-0.027 0-0.071 0-0.131 0.002-0.063 0.003-0.127 0.003-0.193 0-0.068 0-0.131 0-0.19 0.002-0.061 0.003-0.103 0.003-0.126-0.009-0.036-0.021-0.065-0.038-0.088-0.014-0.025-0.034-0.049-0.059-0.072-0.009-0.002-0.025-0.004-0.048-0.005-0.021-0.004-0.045-0.006-0.070-0.008-0.023-0.004-0.046-0.006-0.070-0.008-0.021-0.002-0.037-0.003-0.046-0.003-0.004 0-0.012 0.002-0.027 0.005-0.012 0.002-0.027 0.004-0.043 0.008-0.014 0.002-0.029 0.004-0.043 0.008-0.014 0.002-0.023 0.003-0.027 0.003-0.011 0.002-0.033 0.003-0.067 0.003-0.032 0-0.067 0-0.104 0-0.036 0-0.070 0-0.102 0s-0.055-0.001-0.070-0.003c-0.027 0.011-0.056 0.019-0.088 0.024-0.032 0.004-0.063 0.015-0.091 0.035 0 0.004-0.005 0.011-0.016 0.021s-0.018 0.018-0.021 0.021c-0.014 0.016-0.034 0.038-0.059 0.067-0.023 0.027-0.046 0.055-0.070 0.083s-0.045 0.054-0.064 0.075c-0.018 0.021-0.028 0.033-0.029 0.035-0.013 0.016-0.025 0.038-0.037 0.067-0.011 0.027-0.023 0.054-0.037 0.080-0.014 0.025-0.031 0.047-0.051 0.067s-0.044 0.029-0.072 0.029c-0.021 0-0.037-0.005-0.046-0.016-0.009-0.012-0.016-0.027-0.021-0.043 0-0.005 0-0.013 0-0.024 0-0.012-0.001-0.025-0.003-0.038 0-0.014 0-0.028 0-0.040 0-0.014 0-0.024 0-0.029s0-0.013 0-0.024c0-0.012 0-0.024 0-0.035 0.002-0.012 0.003-0.023 0.003-0.032 0-0.011 0-0.017 0-0.019 0.002-0.005 0.005-0.019 0.011-0.040 0.007-0.023 0.014-0.047 0.021-0.072s0.013-0.048 0.019-0.070c0.007-0.021 0.013-0.035 0.016-0.040 0-0.005 0.002-0.017 0.005-0.035s0.007-0.037 0.011-0.056c0.005-0.021 0.010-0.040 0.013-0.056 0.004-0.018 0.006-0.029 0.008-0.035 0-0.004 0.003-0.013 0.008-0.029 0.007-0.016 0.014-0.034 0.021-0.054s0.013-0.038 0.019-0.054c0.007-0.016 0.011-0.026 0.011-0.029 0.005-0.014 0.011-0.030 0.016-0.048 0.007-0.020 0.015-0.038 0.024-0.054 0.011-0.016 0.023-0.029 0.037-0.040 0.014-0.012 0.031-0.019 0.051-0.019 0.030 0 0.054 0.008 0.072 0.024 0.020 0.016 0.037 0.034 0.054 0.054s0.032 0.040 0.048 0.062c0.016 0.020 0.036 0.033 0.059 0.040 0.037 0 0.077-0.001 0.118-0.003s0.082-0.003 0.123-0.003c0.077 0 0.153 0.002 0.228 0.005s0.149 0.012 0.222 0.024c0 0 0.004 0.002 0.011 0.005 0.007 0.002 0.014 0.004 0.021 0.008 0.009 0.002 0.017 0.004 0.024 0.005 0.009 0.002 0.014 0.003 0.016 0.003h0.086c0.046 0 0.088-0.004 0.126-0.013 0.039-0.009 0.083-0.013 0.131-0.013 0.007 0 0.017 0 0.029 0 0.014 0 0.029 0 0.043 0s0.027 0.001 0.038 0.003c0.011 0 0.018 0.001 0.021 0.003 0.007 0 0.021 0.002 0.043 0.005 0.023 0.002 0.048 0.004 0.075 0.008 0.027 0.002 0.051 0.004 0.072 0.005 0.023 0.002 0.038 0.003 0.046 0.003 0.014-0.005 0.031-0.010 0.051-0.013 0.021-0.004 0.049-0.006 0.083-0.008 0.036-0.002 0.080-0.003 0.134-0.003 0.054-0.002 0.121-0.003 0.201-0.003l0.485 0.005c0.030 0 0.062-0.010 0.094-0.029 0.032-0.021 0.064-0.046 0.096-0.072 0.032-0.029 0.063-0.056 0.094-0.083 0.032-0.027 0.063-0.046 0.094-0.056h0.032c0.052 0 0.088 0.028 0.11 0.083 0.002 0.021 0.005 0.062 0.011 0.121 0.005 0.057 0.011 0.118 0.016 0.182 0.007 0.064 0.014 0.125 0.021 0.182s0.013 0.097 0.016 0.121c0 0.004 0.001 0.010 0.003 0.019s0.004 0.020 0.005 0.032c0.004 0.011 0.006 0.021 0.008 0.032 0.002 0.009 0.003 0.014 0.003 0.016v0.040c0 0.046-0.002 0.088-0.005 0.126s-0.008 0.080-0.013 0.129c-0.007 0.014-0.016 0.024-0.027 0.029-0.009 0.004-0.018 0.005-0.027 0.005-0.005 0-0.011-0.003-0.016-0.008-0.005-0.002-0.010-0.004-0.013-0.008-0.027-0.012-0.050-0.030-0.070-0.054-0.018-0.023-0.034-0.048-0.048-0.075-0.013-0.027-0.024-0.055-0.035-0.083-0.011-0.030-0.021-0.058-0.032-0.083-0.030-0.077-0.080-0.138-0.15-0.185-0.068-0.046-0.138-0.086-0.212-0.118-0.046-0.020-0.092-0.029-0.137-0.029s-0.093-0.004-0.145-0.011c-0.004 0-0.017-0.004-0.040-0.011-0.021-0.009-0.036-0.013-0.043-0.013h-0.257c-0.014 0-0.035 0.004-0.062 0.011-0.027 0.005-0.041 0.010-0.043 0.013-0.005 0.007-0.012 0.014-0.019 0.021-0.013 0.016-0.021 0.029-0.024 0.038-0.007 0.012-0.015 0.029-0.024 0.051-0.009 0.020-0.013 0.030-0.013 0.032-0.002 0.005-0.004 0.015-0.005 0.029-0.002 0.013-0.004 0.026-0.005 0.040 0 0.014-0.001 0.029-0.003 0.043-0.002 0.012-0.004 0.021-0.005 0.027 0 0.029 0.001 0.078 0.003 0.147s0.003 0.145 0.003 0.225c0 0.080-0.001 0.156-0.003 0.228-0.002 0.070-0.003 0.117-0.003 0.142 0 0.091-0.007 0.18-0.021 0.268-0.013 0.086-0.019 0.174-0.019 0.265 0 0.098 0.003 0.196 0.008 0.295 0.007 0.096 0.011 0.196 0.011 0.297 0 0.123-0.004 0.247-0.011 0.372-0.005 0.125-0.008 0.25-0.008 0.375 0 0.038 0.008 0.067 0.024 0.088 0.018 0.021 0.040 0.038 0.067 0.048s0.056 0.018 0.088 0.021c0.034 0.004 0.066 0.006 0.096 0.008 0.014 0.002 0.037 0.004 0.067 0.005 0.032 0.002 0.065 0.004 0.099 0.005 0.036 0.002 0.069 0.004 0.099 0.005s0.052 0.003 0.064 0.003c0.034 0.012 0.059 0.032 0.075 0.059 0.018 0.027 0.027 0.056 0.027 0.088 0 0.041-0.012 0.073-0.035 0.097-0.023 0.021-0.053 0.044-0.088 0.067h-0.005c-0.066 0-0.128-0.005-0.185-0.016-0.055-0.009-0.114-0.018-0.177-0.027-0.191-0.027-0.384-0.040-0.579-0.040zM3.862 30.646c0-0.007-0.005-0.017-0.016-0.029-0.009-0.014-0.014-0.026-0.016-0.035v-0.013c0.004-0.007 0.012-0.018 0.024-0.032s0.026-0.029 0.040-0.043c0.016-0.016 0.030-0.030 0.043-0.043 0.014-0.012 0.024-0.021 0.029-0.027 0.004-0.004 0.015-0.007 0.035-0.011 0.021-0.005 0.037-0.008 0.046-0.008h0.19c0.005 0 0.013-0.001 0.021-0.003 0.011-0.004 0.021-0.006 0.029-0.008 0.011-0.004 0.020-0.007 0.027-0.011 0.009-0.004 0.013-0.005 0.013-0.005 0.025-0.012 0.039-0.032 0.043-0.059 0.005-0.029 0.008-0.055 0.008-0.080v-0.043c0-0.062-0.002-0.121-0.005-0.177-0.002-0.057-0.003-0.117-0.003-0.179v-0.019c0-0.005 0.001-0.015 0.003-0.029s0.004-0.029 0.005-0.046c0.004-0.018 0.007-0.034 0.011-0.048s0.006-0.024 0.008-0.029v-1.168c0-0.036-0.006-0.064-0.019-0.086s-0.029-0.038-0.048-0.048c-0.020-0.012-0.043-0.021-0.070-0.024-0.025-0.004-0.052-0.005-0.080-0.005h-0.11c-0.050 0-0.092-0.006-0.126-0.019s-0.051-0.043-0.051-0.091c0-0.016 0-0.030 0-0.043 0.002-0.012 0.006-0.029 0.013-0.051 0.086 0.004 0.17 0.001 0.252-0.008s0.165-0.013 0.249-0.013h0.070c0.007 0.002 0.021 0.004 0.043 0.005 0.023 0.002 0.046 0.004 0.070 0.005 0.025 0.002 0.048 0.004 0.070 0.005s0.037 0.004 0.046 0.005h1.259c0.054 0 0.092 0.014 0.115 0.043 0.023 0.027 0.040 0.061 0.051 0.102v0.311c0 0.011-0.002 0.030-0.005 0.059-0.004 0.027-0.008 0.056-0.013 0.088-0.004 0.030-0.008 0.061-0.013 0.091-0.004 0.029-0.006 0.049-0.008 0.062-0.004 0.005-0.010 0.013-0.019 0.024-0.009 0.009-0.015 0.013-0.019 0.013 0 0.004-0.002 0.005-0.005 0.005h-0.011c-0.005 0-0.008-0.002-0.008-0.005-0.030-0.021-0.054-0.046-0.070-0.072-0.016-0.029-0.029-0.058-0.040-0.088s-0.021-0.061-0.029-0.091c-0.009-0.030-0.022-0.059-0.040-0.086-0.004-0.007-0.015-0.019-0.035-0.035-0.018-0.018-0.028-0.028-0.029-0.029-0.004-0.004-0.012-0.013-0.024-0.029-0.011-0.016-0.023-0.033-0.038-0.051-0.013-0.020-0.025-0.038-0.037-0.054-0.011-0.016-0.018-0.026-0.021-0.029-0.007-0.016-0.015-0.024-0.024-0.024-0.002 0-0.008-0.001-0.019-0.003-0.009-0.002-0.020-0.004-0.032-0.005-0.011-0.004-0.021-0.006-0.032-0.008-0.009-0.002-0.013-0.004-0.013-0.005-0.005 0-0.015-0.002-0.029-0.005s-0.030-0.007-0.048-0.011c-0.016-0.004-0.031-0.007-0.046-0.011-0.014-0.005-0.023-0.009-0.027-0.011h-0.013c-0.007 0-0.017 0.003-0.029 0.008-0.013 0.004-0.021 0.005-0.027 0.005h-0.008c-0.005-0.002-0.021-0.004-0.046-0.005-0.023-0.002-0.049-0.003-0.078-0.003-0.029-0.002-0.055-0.003-0.080-0.003-0.023-0.002-0.037-0.003-0.043-0.003h-0.008c-0.032 0-0.059 0.006-0.080 0.019s-0.039 0.029-0.054 0.048c-0.013 0.020-0.024 0.042-0.035 0.067-0.009 0.023-0.018 0.046-0.027 0.070-0.002 0.020-0.005 0.052-0.011 0.096-0.004 0.045-0.008 0.092-0.013 0.142-0.004 0.050-0.007 0.097-0.011 0.142s-0.005 0.076-0.005 0.094v0.035c0 0.009 0.001 0.024 0.003 0.046s0.004 0.045 0.005 0.070c0.002 0.023 0.004 0.046 0.005 0.070 0.004 0.021 0.006 0.036 0.008 0.043 0.013 0.016 0.027 0.032 0.043 0.048 0.018 0.016 0.037 0.027 0.056 0.032h0.147c0.061 0 0.113-0.001 0.158-0.003 0.046-0.002 0.102-0.007 0.166-0.016 0.002-0.004 0.004-0.010 0.008-0.019s0.008-0.018 0.013-0.027c0.005-0.009 0.010-0.017 0.013-0.024s0.006-0.012 0.008-0.013c0.007-0.012 0.016-0.030 0.027-0.054 0.011-0.025 0.021-0.049 0.032-0.072 0.011-0.025 0.020-0.046 0.027-0.064 0.009-0.018 0.014-0.028 0.016-0.029 0.004-0.007 0.007-0.022 0.011-0.046 0.004-0.025 0.007-0.039 0.011-0.043 0.014-0.016 0.033-0.027 0.056-0.032s0.046-0.008 0.070-0.008c0.025 0 0.040 0.010 0.046 0.029 0.007 0.018 0.011 0.038 0.011 0.062v0.099c0 0.016-0.002 0.032-0.005 0.048-0.004 0.014-0.010 0.029-0.019 0.043-0.002 0.016-0.004 0.043-0.005 0.080s-0.004 0.077-0.005 0.118c-0.002 0.041-0.004 0.080-0.005 0.118-0.002 0.036-0.003 0.061-0.003 0.075v0.23c-0.002 0.004-0.004 0.012-0.005 0.024s-0.004 0.027-0.005 0.043c0 0.014-0.001 0.029-0.003 0.043s-0.004 0.024-0.005 0.029c-0.020 0.014-0.037 0.025-0.054 0.032-0.014 0.007-0.032 0.011-0.054 0.011-0.014 0-0.028-0.005-0.040-0.016-0.013-0.012-0.024-0.028-0.035-0.046s-0.020-0.036-0.027-0.054c-0.007-0.020-0.012-0.038-0.013-0.054-0.002-0.005-0.004-0.017-0.008-0.035-0.002-0.020-0.004-0.040-0.005-0.062-0.002-0.023-0.004-0.045-0.005-0.064s-0.003-0.034-0.003-0.043c-0.005-0.007-0.015-0.013-0.029-0.019-0.013-0.007-0.025-0.014-0.037-0.021-0.011-0.004-0.028-0.008-0.051-0.013s-0.048-0.010-0.075-0.013c-0.025-0.005-0.049-0.009-0.072-0.011-0.021-0.004-0.036-0.005-0.043-0.005-0.005 0-0.015 0-0.029 0-0.013-0.002-0.028-0.003-0.046-0.003-0.016 0-0.032 0-0.048 0-0.016-0.002-0.029-0.003-0.038-0.003-0.005 0-0.014 0.001-0.027 0.003-0.011 0-0.022 0-0.035 0-0.011 0-0.021 0.001-0.029 0.003-0.009 0-0.014 0-0.016 0l-0.037 0.043v0.091c0 0.105-0.004 0.207-0.011 0.305-0.007 0.096-0.011 0.197-0.011 0.303 0 0.054 0.004 0.093 0.013 0.118s0.023 0.043 0.043 0.054c0.020 0.011 0.045 0.019 0.075 0.024s0.068 0.014 0.112 0.027c0.004 0 0.010 0.003 0.019 0.008s0.015 0.011 0.019 0.016h0.407c0.004 0 0.012-0.001 0.024-0.003 0.013-0.004 0.026-0.006 0.040-0.008 0.014-0.004 0.027-0.006 0.038-0.008 0.013-0.004 0.021-0.005 0.024-0.005h0.179c0.004 0 0.010-0.003 0.019-0.008 0.009-0.007 0.018-0.014 0.027-0.021 0.011-0.009 0.020-0.017 0.027-0.024s0.012-0.011 0.013-0.011c0.013-0.005 0.022-0.008 0.029-0.008 0.009-0.002 0.016-0.003 0.021-0.003 0.005-0.002 0.011-0.004 0.016-0.008 0.005-0.005 0.011-0.013 0.016-0.024 0.020-0.029 0.034-0.058 0.043-0.088s0.021-0.061 0.035-0.091c0.007-0.005 0.016-0.016 0.027-0.032 0.011-0.018 0.017-0.029 0.019-0.035 0.002 0 0.007-0.003 0.016-0.008 0.009-0.007 0.018-0.014 0.027-0.021 0.009-0.009 0.017-0.017 0.024-0.024 0.007-0.009 0.012-0.015 0.013-0.019 0.002-0.005 0.005-0.012 0.011-0.021 0.007-0.011 0.014-0.021 0.021-0.032 0.007-0.012 0.013-0.023 0.019-0.032 0.007-0.011 0.012-0.018 0.013-0.021 0-0.002 0.003-0.005 0.008-0.011 0.004-0.002 0.007-0.004 0.011-0.008 0-0.004 0.001-0.005 0.003-0.005h0.005c0.027 0 0.043 0.011 0.048 0.032 0.005 0.020 0.008 0.040 0.008 0.062v0.056c0 0.009 0.001 0.030 0.003 0.064s0.003 0.071 0.003 0.11c0.002 0.038 0.004 0.073 0.005 0.107s0.003 0.055 0.003 0.062v0.008c0 0.023-0.004 0.050-0.013 0.080-0.009 0.029-0.021 0.056-0.037 0.083s-0.036 0.049-0.059 0.067c-0.021 0.018-0.045 0.028-0.070 0.029-0.013-0.002-0.036-0.003-0.070-0.005-0.032-0.002-0.067-0.004-0.104-0.006s-0.073-0.003-0.107-0.005c-0.034-0.002-0.058-0.005-0.072-0.008h-0.096c-0.009 0.004-0.029 0.007-0.062 0.011-0.032 0.002-0.067 0.004-0.104 0.006-0.036 0.002-0.071 0.004-0.104 0.006-0.032 0.002-0.052 0.002-0.059 0.002h-1.015c-0.005 0.002-0.014 0.004-0.027 0.006-0.011 0.002-0.023 0.003-0.037 0.003-0.013 0.002-0.025 0.003-0.038 0.003-0.013 0.002-0.021 0.002-0.027 0.002 0 0.004-0.006 0.006-0.019 0.006s-0.024-0.001-0.035-0.003c-0.011-0.002-0.018-0.003-0.021-0.003-0.007 0.006-0.021 0.012-0.043 0.019s-0.037 0.011-0.046 0.011-0.024-0.002-0.046-0.006c-0.020-0.003-0.041-0.008-0.064-0.013-0.023-0.003-0.046-0.008-0.067-0.013-0.021-0.004-0.038-0.007-0.048-0.011zM7.404 29.585c0 0.025 0.012 0.043 0.035 0.054s0.045 0.016 0.064 0.016h0.142c0.020 0 0.039 0.001 0.059 0.003s0.039 0.003 0.059 0.003c0.046 0 0.087-0.007 0.121-0.021 0.034-0.016 0.051-0.051 0.051-0.104v-0.046c-0.016-0.082-0.040-0.163-0.072-0.244-0.032-0.082-0.063-0.162-0.091-0.238-0.004-0.012-0.009-0.026-0.016-0.040-0.005-0.016-0.013-0.030-0.021-0.043-0.009-0.014-0.019-0.026-0.029-0.035s-0.022-0.013-0.035-0.013c-0.023 0-0.042 0.010-0.056 0.029-0.013 0.020-0.023 0.043-0.032 0.070-0.007 0.027-0.013 0.054-0.019 0.083-0.005 0.027-0.012 0.048-0.019 0.064-0.005 0.016-0.015 0.045-0.029 0.086-0.013 0.041-0.026 0.085-0.040 0.131-0.014 0.045-0.029 0.087-0.043 0.129-0.013 0.041-0.021 0.070-0.027 0.086v0.032zM6.779 30.632h-0.013c-0.004 0-0.013 0.002-0.027 0.006-0.014 0.002-0.030 0.005-0.048 0.008-0.018 0.002-0.035 0.004-0.051 0.006-0.014 0.002-0.023 0.003-0.027 0.003h-0.016c-0.011 0-0.020-0.005-0.027-0.013s-0.013-0.019-0.016-0.030c-0.004-0.012-0.005-0.024-0.005-0.035-0.002-0.012-0.003-0.021-0.003-0.024v-0.008c0-0.032 0.011-0.053 0.032-0.064 0.023-0.011 0.046-0.020 0.067-0.029 0.004 0 0.013-0.003 0.027-0.008 0.014-0.007 0.029-0.014 0.046-0.021 0.018-0.007 0.034-0.013 0.048-0.019 0.014-0.007 0.023-0.012 0.027-0.016 0.002-0.002 0.007-0.006 0.016-0.013 0.009-0.009 0.019-0.019 0.029-0.029s0.021-0.021 0.029-0.032c0.011-0.011 0.020-0.020 0.027-0.027 0.002-0.004 0.004-0.008 0.008-0.013 0.007-0.011 0.011-0.019 0.011-0.024 0-0.004 0.002-0.014 0.005-0.032 0.005-0.018 0.010-0.029 0.013-0.032 0.048-0.096 0.096-0.194 0.145-0.292 0.048-0.1 0.094-0.2 0.137-0.3 0.005-0.005 0.013-0.021 0.021-0.046 0.011-0.027 0.018-0.046 0.021-0.056 0.002-0.004 0.006-0.014 0.013-0.032 0.007-0.020 0.014-0.039 0.021-0.059 0.007-0.021 0.013-0.041 0.019-0.059 0.007-0.018 0.011-0.029 0.011-0.032 0.002-0.005 0.007-0.018 0.016-0.038 0.011-0.020 0.021-0.041 0.032-0.064 0.013-0.023 0.023-0.046 0.032-0.067 0.011-0.021 0.018-0.035 0.021-0.040 0.014-0.032 0.028-0.061 0.040-0.086 0.014-0.027 0.028-0.058 0.040-0.094 0.007-0.014 0.016-0.030 0.027-0.048 0.013-0.018 0.024-0.037 0.035-0.056 0.011-0.021 0.020-0.042 0.027-0.062 0.009-0.020 0.013-0.038 0.013-0.056v-0.038c0-0.007-0.003-0.019-0.008-0.035-0.004-0.018-0.005-0.028-0.005-0.029 0-0.012 0.007-0.029 0.021-0.048s0.025-0.032 0.032-0.038c0.004-0.002 0.012-0.005 0.024-0.011 0.014-0.005 0.029-0.012 0.043-0.019s0.027-0.013 0.038-0.019c0.013-0.005 0.020-0.009 0.021-0.011 0.004-0.004 0.011-0.011 0.021-0.021s0.022-0.022 0.035-0.035c0.014-0.014 0.027-0.028 0.038-0.040 0.013-0.014 0.021-0.024 0.027-0.029 0.002-0.002 0.005-0.007 0.011-0.016 0.005-0.011 0.012-0.020 0.019-0.029 0.007-0.011 0.015-0.020 0.024-0.027 0.009-0.009 0.019-0.012 0.029-0.011 0.018 0.005 0.033 0.021 0.046 0.048 0.014 0.027 0.026 0.056 0.035 0.088 0.011 0.030 0.020 0.061 0.027 0.091 0.007 0.029 0.013 0.048 0.019 0.059 0.002 0.009 0.004 0.021 0.008 0.038 0.005 0.016 0.010 0.032 0.013 0.048 0.005 0.016 0.010 0.030 0.013 0.043s0.005 0.020 0.005 0.021c0.002 0.005 0.004 0.018 0.008 0.038s0.007 0.041 0.011 0.064c0.005 0.023 0.010 0.045 0.013 0.064 0.004 0.018 0.005 0.029 0.005 0.032 0.002 0.005 0.006 0.022 0.013 0.051 0.009 0.029 0.019 0.062 0.029 0.099s0.021 0.075 0.032 0.113c0.011 0.036 0.020 0.064 0.027 0.086 0.014 0.048 0.032 0.096 0.054 0.145 0.021 0.046 0.037 0.094 0.048 0.142 0.009 0.041 0.014 0.074 0.016 0.099 0.004 0.023 0.012 0.052 0.027 0.086 0.002 0.004 0.005 0.012 0.011 0.024 0.007 0.011 0.014 0.023 0.021 0.038 0.007 0.012 0.013 0.025 0.019 0.038s0.009 0.021 0.011 0.027c0 0.004 0.001 0.010 0.003 0.019s0.004 0.020 0.005 0.032c0.004 0.011 0.006 0.021 0.008 0.032 0.002 0.009 0.004 0.015 0.005 0.019 0 0.002 0.002 0.008 0.005 0.019 0.004 0.009 0.008 0.020 0.013 0.032 0.005 0.011 0.010 0.021 0.013 0.032 0.005 0.009 0.009 0.013 0.011 0.013 0.009 0.046 0.021 0.096 0.035 0.15s0.037 0.101 0.067 0.142c0.014 0.021 0.040 0.039 0.078 0.054 0.039 0.014 0.079 0.029 0.118 0.043 0.041 0.014 0.077 0.030 0.107 0.048s0.046 0.041 0.046 0.070c0 0.030-0.008 0.055-0.024 0.072-0.014 0.016-0.033 0.029-0.056 0.038s-0.049 0.014-0.078 0.016-0.055 0.003-0.080 0.003h-0.11c-0.029 0-0.079-0.001-0.15-0.003s-0.148-0.004-0.23-0.006c-0.080-0.003-0.157-0.006-0.23-0.008-0.071-0.004-0.121-0.006-0.15-0.006-0.020-0.007-0.031-0.015-0.035-0.024-0.004-0.011-0.005-0.026-0.005-0.045v-0.019c0-0.003 0.001-0.007 0.003-0.011 0.016-0.034 0.038-0.056 0.067-0.067 0.029-0.012 0.058-0.022 0.088-0.029 0.032-0.007 0.063-0.015 0.094-0.024 0.030-0.011 0.055-0.032 0.075-0.064l0.005-0.019-0.005-0.019c-0.002-0.016-0.006-0.038-0.013-0.067-0.005-0.029-0.012-0.057-0.019-0.086-0.005-0.029-0.011-0.054-0.016-0.075-0.005-0.023-0.009-0.037-0.011-0.040-0.004-0.004-0.009-0.013-0.016-0.027s-0.015-0.030-0.024-0.048c-0.007-0.018-0.015-0.035-0.024-0.051-0.007-0.018-0.013-0.031-0.019-0.040-0.020-0.030-0.047-0.048-0.083-0.054-0.034-0.007-0.068-0.011-0.102-0.011h-0.054c-0.064 0-0.125 0.004-0.182 0.013-0.055 0.009-0.114 0.013-0.177 0.013-0.013 0-0.025-0.001-0.037-0.003s-0.025-0.003-0.038-0.003c-0.013 0.012-0.019 0.022-0.019 0.029-0.004 0.002-0.008 0.009-0.013 0.021-0.004 0.011-0.008 0.023-0.013 0.038-0.004 0.013-0.008 0.025-0.013 0.038-0.004 0.011-0.005 0.017-0.005 0.019 0 0.004-0.006 0.014-0.019 0.032-0.011 0.018-0.019 0.029-0.024 0.032-0.021 0.045-0.034 0.091-0.038 0.139-0.004 0.046-0.005 0.095-0.005 0.145 0 0.029 0.009 0.050 0.027 0.064 0.018 0.013 0.040 0.022 0.067 0.029s0.055 0.013 0.086 0.019c0.030 0.004 0.059 0.010 0.086 0.019 0.027 0.007 0.049 0.019 0.067 0.035s0.027 0.039 0.027 0.070c0 0.059-0.028 0.095-0.083 0.11-0.007 0-0.021-0.001-0.040-0.003-0.018-0.002-0.037-0.003-0.056-0.005s-0.038-0.004-0.056-0.006c-0.018-0.002-0.030-0.003-0.037-0.005h-0.265c-0.005 0-0.020-0.001-0.043-0.003s-0.049-0.004-0.078-0.006c-0.029-0.003-0.054-0.006-0.078-0.008-0.023-0.004-0.038-0.006-0.043-0.006h-0.013zM9.506 30.646c-0.004 0-0.014 0.002-0.032 0.006-0.016 0.006-0.025 0.008-0.027 0.008h-0.011c-0.023 0-0.046-0.001-0.070-0.002-0.021-0.002-0.041-0.006-0.059-0.013-0.016-0.007-0.029-0.018-0.040-0.032s-0.016-0.034-0.016-0.059v-0.040c0.002-0.018 0.023-0.030 0.064-0.038 0.043-0.009 0.090-0.014 0.142-0.016 0.052-0.004 0.101-0.006 0.147-0.008 0.046-0.004 0.074-0.011 0.083-0.021 0.002-0.009 0.004-0.017 0.005-0.024s0.004-0.013 0.005-0.019c0.002-0.005 0.003-0.010 0.003-0.013 0-0.007 0.001-0.018 0.003-0.032 0.004-0.016 0.006-0.032 0.008-0.048 0.004-0.018 0.006-0.034 0.008-0.048s0.003-0.024 0.003-0.029 0.001-0.044 0.003-0.088c0.002-0.046 0.004-0.096 0.005-0.15s0.004-0.105 0.005-0.155c0.002-0.050 0.003-0.086 0.003-0.107 0-0.009 0-0.025 0-0.048 0.002-0.025 0.003-0.052 0.003-0.080s-0.001-0.054-0.003-0.078c0-0.023 0-0.041 0-0.054l0.013-0.035c0-0.002 0.001-0.020 0.003-0.054 0.002-0.036 0.004-0.078 0.005-0.126 0.004-0.048 0.006-0.097 0.008-0.147 0.004-0.050 0.005-0.091 0.005-0.123v-0.372c0-0.007-0.002-0.018-0.005-0.032-0.002-0.014-0.004-0.029-0.005-0.043-0.002-0.016-0.004-0.029-0.008-0.040-0.002-0.012-0.003-0.020-0.003-0.024-0.009-0.027-0.027-0.046-0.054-0.056-0.025-0.013-0.055-0.021-0.091-0.027-0.034-0.005-0.071-0.008-0.11-0.008-0.037-0.002-0.072-0.005-0.104-0.011s-0.059-0.014-0.080-0.027c-0.020-0.014-0.029-0.036-0.029-0.064 0-0.016 0.005-0.030 0.016-0.043 0.011-0.014 0.023-0.027 0.038-0.038s0.029-0.019 0.046-0.024c0.018-0.007 0.033-0.011 0.046-0.011 0.025 0 0.055 0.004 0.091 0.011s0.063 0.009 0.083 0.005c0.005 0 0.016-0.001 0.032-0.003s0.033-0.004 0.051-0.005c0.020-0.002 0.038-0.004 0.054-0.005 0.018-0.002 0.029-0.003 0.035-0.003 0.009 0 0.029 0.001 0.062 0.003s0.066 0.004 0.102 0.005c0.038 0.002 0.072 0.004 0.104 0.008 0.032 0.002 0.053 0.004 0.062 0.005h0.056c0.004-0.002 0.012-0.004 0.024-0.005 0.012-0.004 0.025-0.006 0.038-0.008 0.014-0.002 0.027-0.004 0.037-0.005 0.012-0.002 0.020-0.003 0.021-0.003h0.134c0.002 0 0.008-0.001 0.019-0.003s0.021-0.004 0.032-0.005c0.012-0.002 0.023-0.004 0.032-0.005 0.011-0.002 0.017-0.003 0.019-0.003h0.011c0.004 0 0.006 0 0.008 0 0.004-0.002 0.007-0.003 0.011-0.003 0.021 0 0.043 0.001 0.064 0.003s0.041 0.006 0.059 0.013c0.018 0.005 0.032 0.015 0.043 0.029 0.012 0.014 0.019 0.034 0.019 0.059 0 0.005-0.002 0.013-0.005 0.024-0.004 0.009-0.005 0.015-0.005 0.019-0.014 0.009-0.037 0.022-0.067 0.040-0.030 0.016-0.055 0.026-0.075 0.029-0.007 0-0.023 0.002-0.048 0.005-0.023 0.002-0.048 0.004-0.075 0.008-0.027 0.002-0.052 0.004-0.075 0.008-0.023 0.002-0.037 0.003-0.043 0.003-0.014 0.002-0.027 0.008-0.038 0.019-0.009 0.009-0.015 0.021-0.019 0.035-0.016 0.080-0.027 0.16-0.032 0.238-0.004 0.079-0.005 0.159-0.005 0.241v0.343c0 0.002-0.002 0.012-0.005 0.032-0.002 0.018-0.004 0.038-0.008 0.062-0.002 0.021-0.004 0.042-0.008 0.062-0.002 0.020-0.003 0.032-0.003 0.038v0.563c0 0.005-0.001 0.017-0.003 0.035s-0.004 0.037-0.005 0.056c-0.002 0.020-0.004 0.038-0.005 0.054s-0.003 0.026-0.003 0.029v0.038c0 0.004 0.003 0.013 0.008 0.029 0.005 0.014 0.008 0.023 0.008 0.027s-0.003 0.010-0.008 0.019c-0.005 0.007-0.008 0.013-0.008 0.019-0.002 0.005-0.003 0.011-0.003 0.016-0.002 0.004-0.003 0.008-0.003 0.013 0 0.004 0 0.007 0 0.011 0 0.034 0.010 0.066 0.029 0.096 0.021 0.029 0.048 0.043 0.080 0.043h0.016c0.052-0.009 0.105-0.017 0.161-0.024 0.057-0.009 0.112-0.013 0.163-0.013h0.453c0.007 0 0.019-0.001 0.035-0.003 0.018-0.002 0.035-0.004 0.051-0.005s0.030-0.004 0.043-0.005c0.012-0.004 0.020-0.006 0.021-0.008 0.004-0.002 0.011-0.007 0.021-0.016 0.011-0.011 0.022-0.022 0.035-0.035 0.014-0.014 0.027-0.028 0.038-0.040 0.012-0.013 0.021-0.022 0.027-0.029 0-0.002 0.002-0.006 0.005-0.013 0.004-0.009 0.007-0.017 0.011-0.024 0.004-0.009 0.007-0.017 0.011-0.024s0.006-0.012 0.008-0.013c0-0.002 0.003-0.004 0.008-0.008 0.007-0.005 0.014-0.011 0.021-0.016s0.013-0.010 0.019-0.013c0.007-0.004 0.012-0.005 0.013-0.005l0.013-0.013c0.004-0.002 0.011-0.012 0.021-0.029 0.011-0.020 0.016-0.031 0.016-0.035 0.007-0.007 0.016-0.018 0.027-0.032 0.012-0.016 0.025-0.032 0.037-0.048 0.014-0.018 0.027-0.034 0.038-0.048 0.011-0.016 0.019-0.027 0.024-0.032 0.007-0.009 0.012-0.014 0.013-0.016 0.004-0.002 0.012-0.003 0.027-0.003 0.029 0 0.051 0.012 0.067 0.035 0.016 0.021 0.028 0.047 0.035 0.078s0.011 0.062 0.011 0.094c0.002 0.030 0.003 0.055 0.003 0.075 0 0.009 0 0.020 0 0.032s0 0.025 0 0.038c0 0.012-0.001 0.023-0.003 0.032 0 0.009 0 0.013 0 0.013 0 0.004-0.003 0.013-0.008 0.029-0.005 0.014-0.008 0.023-0.008 0.027-0.004 0.041-0.005 0.077-0.005 0.107 0 0.029-0.004 0.054-0.013 0.075-0.007 0.021-0.021 0.039-0.043 0.053-0.020 0.014-0.053 0.027-0.099 0.038-0.016 0.002-0.046 0.003-0.088 0.003-0.043 0.002-0.089 0.003-0.139 0.003-0.048 0-0.095 0-0.139 0-0.043 0-0.073 0-0.091 0-0.032 0-0.073 0-0.123 0s-0.099 0-0.147 0c-0.046 0-0.088-0.001-0.123-0.003-0.036 0-0.054-0.001-0.056-0.003-0.009 0-0.027-0.001-0.054-0.002-0.025 0-0.054-0.001-0.086-0.003-0.030 0-0.061-0.001-0.091-0.003-0.029-0.002-0.051-0.004-0.067-0.006-0.002 0-0.007-0.001-0.016-0.002s-0.019-0.004-0.029-0.006-0.021-0.004-0.029-0.006-0.014-0.003-0.016-0.005h-0.043c-0.009 0.002-0.027 0.004-0.054 0.005s-0.055 0.004-0.086 0.006-0.060 0.004-0.088 0.006c-0.027 0.002-0.044 0.002-0.051 0.002h-0.179c-0.004 0-0.016 0.002-0.038 0.006-0.020 0.006-0.030 0.008-0.032 0.008-0.012 0.007-0.028 0.011-0.046 0.011-0.016 0.002-0.029 0.003-0.038 0.003-0.005 0-0.016-0.002-0.032-0.005-0.016-0.002-0.034-0.005-0.054-0.008-0.018-0.003-0.035-0.007-0.051-0.011-0.016-0.002-0.025-0.003-0.027-0.003zM12.34 28.524c-0.005-0.034-0.012-0.061-0.021-0.080-0.009-0.021-0.021-0.038-0.035-0.051-0.014-0.014-0.032-0.027-0.054-0.038s-0.048-0.024-0.080-0.040c-0.020-0.009-0.040-0.015-0.062-0.019-0.020-0.005-0.032-0.010-0.037-0.013-0.011-0.012-0.019-0.029-0.024-0.051-0.005-0.023-0.008-0.040-0.008-0.051 0-0.004 0-0.011 0-0.021 0.002-0.012 0.006-0.021 0.013-0.027 0.004-0.002 0.013-0.004 0.029-0.008s0.029-0.007 0.038-0.011c0.018-0.002 0.037-0.004 0.059-0.005 0.023-0.002 0.045-0.003 0.064-0.003 0.030 0 0.062 0.003 0.094 0.008 0.032 0.004 0.074 0.010 0.126 0.019h0.102c0.034 0 0.066 0 0.096 0s0.060-0.001 0.088-0.003c0.029-0.002 0.057-0.004 0.086-0.005s0.060-0.005 0.094-0.011c0.005 0 0.016-0.003 0.032-0.008s0.026-0.008 0.029-0.008h0.019c0.041 0 0.079 0.007 0.113 0.021 0.036 0.014 0.054 0.044 0.054 0.088 0 0.030-0.011 0.054-0.032 0.070s-0.047 0.030-0.078 0.043c-0.029 0.012-0.058 0.025-0.088 0.038-0.029 0.011-0.051 0.026-0.067 0.046-0.018 0.020-0.032 0.044-0.043 0.072-0.011 0.027-0.020 0.056-0.027 0.088-0.005 0.030-0.009 0.061-0.011 0.091s-0.003 0.057-0.003 0.080c0 0.029 0.004 0.052 0.011 0.070 0.009 0.018 0.013 0.039 0.013 0.064 0 0.005-0.001 0.013-0.003 0.024 0 0.009-0.003 0.015-0.008 0.019 0 0.004-0.001 0.013-0.003 0.029s-0.004 0.034-0.005 0.054c0 0.018-0.001 0.035-0.003 0.051s-0.003 0.027-0.003 0.032v0.236c0 0.009-0.004 0.024-0.011 0.046-0.005 0.021-0.009 0.036-0.011 0.043v0.056c0 0.004 0.001 0.013 0.003 0.027 0.004 0.014 0.006 0.029 0.008 0.046 0.004 0.016 0.006 0.031 0.008 0.046s0.003 0.023 0.003 0.027c0.002 0.009 0.003 0.025 0.003 0.048 0.002 0.021 0.004 0.045 0.005 0.070 0.002 0.023 0.003 0.046 0.003 0.067 0.002 0.021 0.003 0.037 0.003 0.046 0.002 0.014 0.005 0.033 0.011 0.056 0.005 0.021 0.011 0.044 0.016 0.067 0.007 0.023 0.014 0.046 0.021 0.067s0.014 0.038 0.021 0.051c0.007 0.018 0.020 0.040 0.037 0.067 0.020 0.027 0.041 0.054 0.064 0.080 0.023 0.025 0.046 0.047 0.070 0.067 0.025 0.020 0.048 0.032 0.070 0.038 0.004 0 0.012 0.004 0.024 0.011 0.012 0.005 0.023 0.008 0.032 0.008 0.012 0 0.019 0.001 0.019 0.003 0.020 0.002 0.037 0.006 0.054 0.013 0.016 0.005 0.031 0.012 0.046 0.019 0.014 0.005 0.029 0.011 0.046 0.016s0.034 0.008 0.054 0.008h0.037c0.002-0.002 0.008-0.005 0.019-0.011s0.021-0.011 0.032-0.016c0.012-0.005 0.023-0.010 0.032-0.013 0.011-0.004 0.017-0.005 0.019-0.005h0.043c0.018-0.005 0.037-0.011 0.056-0.016 0.014-0.004 0.029-0.006 0.046-0.008 0.016-0.004 0.029-0.006 0.038-0.008 0.048-0.016 0.091-0.046 0.129-0.088 0.039-0.045 0.071-0.085 0.094-0.121 0.002-0.004 0.004-0.012 0.008-0.024 0.005-0.012 0.010-0.025 0.013-0.038 0.005-0.014 0.010-0.028 0.013-0.040s0.005-0.021 0.005-0.024c0.021-0.055 0.037-0.113 0.048-0.174s0.018-0.122 0.021-0.185c0.004-0.064 0.006-0.128 0.008-0.19s0.005-0.123 0.011-0.182c0-0.002 0.001-0.007 0.003-0.016 0.002-0.011 0.003-0.021 0.003-0.032 0.002-0.012 0.004-0.023 0.005-0.032 0.002-0.011 0.003-0.018 0.003-0.021v-0.233c-0.002-0.014-0.004-0.040-0.008-0.078s-0.008-0.078-0.013-0.121c-0.004-0.043-0.007-0.083-0.011-0.121-0.002-0.039-0.003-0.067-0.003-0.083-0.004-0.009-0.011-0.026-0.021-0.051-0.011-0.027-0.020-0.044-0.027-0.051-0.002-0.009-0.004-0.018-0.008-0.027-0.004-0.011-0.007-0.016-0.011-0.016-0.012-0.012-0.024-0.019-0.035-0.019-0.009 0-0.017 0.001-0.024 0.003-0.005 0.002-0.012 0.003-0.019 0.003-0.009 0-0.017-0.002-0.024-0.005-0.045-0.009-0.086-0.020-0.123-0.032-0.036-0.013-0.069-0.038-0.099-0.078-0.004-0.009-0.006-0.015-0.008-0.019 0-0.004 0-0.012 0-0.024 0-0.004 0.001-0.007 0.003-0.011 0.002-0.005 0.004-0.010 0.005-0.013 0.029-0.036 0.063-0.057 0.104-0.064 0.041-0.009 0.084-0.013 0.129-0.013 0.032 0 0.064 0.002 0.096 0.005 0.032 0.002 0.063 0.003 0.094 0.003 0.014 0 0.035-0.003 0.062-0.008 0.029-0.005 0.053-0.008 0.072-0.008h0.166c0.016 0 0.035-0.001 0.056-0.003 0.023-0.002 0.046-0.003 0.070-0.003 0.036 0 0.071 0.003 0.104 0.008s0.063 0.016 0.086 0.032c0.004 0.005 0.005 0.015 0.005 0.029 0.002 0.014 0.003 0.023 0.003 0.027 0 0.036-0.009 0.063-0.027 0.083-0.016 0.018-0.037 0.032-0.064 0.043-0.025 0.009-0.053 0.016-0.083 0.021-0.029 0.005-0.055 0.013-0.080 0.024-0.029 0.012-0.052 0.032-0.070 0.059s-0.027 0.056-0.027 0.088c0 0.029 0.003 0.054 0.008 0.075 0.007 0.021 0.011 0.046 0.011 0.075v0.046c0 0.005-0.004 0.017-0.011 0.035-0.005 0.018-0.008 0.028-0.008 0.029v0.222c-0.002 0.020-0.004 0.054-0.005 0.102s-0.004 0.1-0.008 0.155c-0.002 0.054-0.004 0.104-0.005 0.153s-0.004 0.082-0.005 0.102c-0.009 0.018-0.015 0.036-0.019 0.054-0.004 0.016-0.006 0.033-0.008 0.051-0.002 0.016-0.004 0.032-0.005 0.048 0 0.016-0.003 0.033-0.008 0.051-0.002 0.005-0.004 0.015-0.008 0.029-0.004 0.012-0.008 0.027-0.013 0.043-0.004 0.016-0.007 0.031-0.011 0.046-0.004 0.012-0.005 0.020-0.005 0.024-0.004 0.004-0.006 0.012-0.008 0.027-0.002 0.013-0.004 0.026-0.005 0.040 0 0.012-0.002 0.025-0.005 0.038-0.002 0.011-0.004 0.016-0.005 0.016 0 0.005-0.006 0.018-0.019 0.038-0.013 0.018-0.020 0.029-0.021 0.032-0.004 0.004-0.010 0.015-0.019 0.035s-0.020 0.041-0.032 0.064c-0.011 0.023-0.021 0.045-0.032 0.064s-0.018 0.032-0.021 0.038c-0.032 0.061-0.074 0.115-0.126 0.163-0.050 0.048-0.104 0.097-0.161 0.147-0.007 0.006-0.018 0.013-0.032 0.024-0.014 0.009-0.029 0.019-0.046 0.030-0.014 0.011-0.028 0.020-0.040 0.029-0.012 0.007-0.020 0.012-0.021 0.013h-0.078c-0.034 0.004-0.064 0.007-0.091 0.011-0.025 0.005-0.050 0.010-0.075 0.013-0.025 0.006-0.051 0.010-0.078 0.013s-0.057 0.006-0.091 0.006h-0.161c-0.020-0.009-0.040-0.015-0.062-0.019s-0.043-0.007-0.064-0.011c-0.020-0.002-0.039-0.005-0.059-0.011-0.020-0.004-0.038-0.011-0.056-0.021-0.005-0.002-0.017-0.008-0.035-0.019-0.018-0.012-0.038-0.027-0.062-0.043-0.021-0.016-0.043-0.031-0.064-0.046-0.021-0.016-0.038-0.029-0.048-0.040l-0.019-0.013c-0.014-0.023-0.029-0.043-0.046-0.059-0.016-0.018-0.032-0.035-0.048-0.051s-0.032-0.033-0.048-0.051c-0.014-0.020-0.027-0.042-0.037-0.067-0.038-0.086-0.064-0.178-0.080-0.276-0.014-0.1-0.021-0.198-0.021-0.295-0.002-0.021-0.004-0.051-0.005-0.088 0-0.039 0-0.084 0-0.134 0-0.052 0-0.107 0-0.166s0-0.12 0-0.182c0-0.061 0-0.121 0-0.179s0-0.113 0-0.163c0-0.052 0-0.097 0-0.137 0.002-0.041 0.004-0.072 0.005-0.094zM16.497 28.514c0.014-0.007 0.024-0.020 0.029-0.038s0.008-0.036 0.008-0.054c0-0.038-0.014-0.063-0.043-0.078-0.027-0.016-0.057-0.028-0.091-0.035-0.032-0.009-0.062-0.018-0.091-0.027-0.027-0.011-0.040-0.029-0.040-0.056 0-0.009 0.004-0.016 0.011-0.021 0.007-0.007 0.016-0.013 0.027-0.016 0.011-0.005 0.021-0.010 0.032-0.013 0.012-0.004 0.023-0.007 0.032-0.011s0.023-0.007 0.043-0.011c0.021-0.004 0.034-0.005 0.038-0.005h0.471c0.032-0.014 0.063-0.022 0.094-0.024 0.030-0.004 0.061-0.005 0.091-0.005 0.023 0 0.045 0.001 0.064 0.003 0.021 0 0.039 0.003 0.054 0.008 0.016 0.005 0.029 0.015 0.038 0.029s0.013 0.035 0.013 0.062c0 0.038-0.011 0.066-0.032 0.086-0.020 0.020-0.045 0.035-0.075 0.046-0.030 0.009-0.063 0.016-0.096 0.021-0.032 0.005-0.061 0.012-0.086 0.019-0.080 0.029-0.152 0.067-0.214 0.115-0.061 0.046-0.119 0.104-0.174 0.171-0.005 0.005-0.015 0.017-0.029 0.035-0.014 0.016-0.030 0.034-0.048 0.054-0.016 0.020-0.031 0.038-0.046 0.056-0.014 0.016-0.024 0.027-0.029 0.032-0.007 0.009-0.015 0.020-0.024 0.032s-0.020 0.023-0.032 0.032-0.046 0.045-0.067 0.075c-0.021 0.030-0.039 0.060-0.054 0.088-0.007 0.012-0.013 0.024-0.019 0.035-0.004 0.011-0.005 0.025-0.005 0.043 0 0.038 0.010 0.077 0.029 0.118s0.038 0.079 0.056 0.115c0.007 0.011 0.016 0.027 0.027 0.048 0.011 0.020 0.021 0.039 0.032 0.059s0.020 0.038 0.027 0.054c0.009 0.016 0.014 0.026 0.016 0.029s0.008 0.014 0.019 0.032c0.012 0.016 0.026 0.035 0.040 0.056 0.014 0.020 0.027 0.038 0.038 0.056 0.012 0.018 0.021 0.029 0.024 0.035l0.064 0.121c0.021 0.050 0.044 0.1 0.067 0.15 0.023 0.048 0.048 0.096 0.075 0.142 0.027 0.045 0.057 0.087 0.091 0.129s0.073 0.080 0.118 0.118c0.016 0.012 0.037 0.023 0.062 0.032 0.025 0.007 0.049 0.015 0.072 0.024 0.025 0.009 0.046 0.022 0.062 0.038 0.018 0.014 0.027 0.036 0.027 0.064 0 0.036-0.012 0.058-0.035 0.067-0.021 0.011-0.046 0.016-0.075 0.016-0.016 0-0.033-0.001-0.051-0.003-0.016-0.002-0.030-0.003-0.043-0.003-0.007 0.004-0.025 0.006-0.054 0.008-0.029 0.003-0.060 0.007-0.094 0.011-0.032 0.004-0.062 0.006-0.091 0.008s-0.046 0.003-0.054 0.003h-0.013c-0.002 0-0.008-0.001-0.019-0.003s-0.022-0.004-0.035-0.008c-0.011-0.004-0.022-0.007-0.035-0.011-0.011-0.002-0.017-0.005-0.019-0.008-0.009 0-0.028-0.001-0.056-0.002-0.027-0.002-0.056-0.004-0.088-0.006-0.030 0-0.059-0.001-0.086-0.003s-0.044-0.003-0.051-0.003c-0.007 0-0.022-0.002-0.046-0.005-0.021-0.006-0.036-0.010-0.043-0.013v-0.019c0-0.028 0.006-0.048 0.019-0.059 0.014-0.011 0.029-0.020 0.043-0.027 0.016-0.009 0.030-0.020 0.043-0.032 0.014-0.012 0.021-0.035 0.021-0.067 0-0.018-0.005-0.046-0.016-0.086s-0.026-0.082-0.046-0.129c-0.018-0.048-0.038-0.097-0.062-0.147-0.021-0.050-0.045-0.096-0.070-0.137-0.023-0.041-0.046-0.075-0.067-0.102s-0.040-0.040-0.056-0.040c-0.030 0-0.055 0.009-0.075 0.027-0.020 0.016-0.037 0.037-0.051 0.062-0.014 0.023-0.027 0.048-0.037 0.075s-0.021 0.050-0.032 0.070c-0.005 0.009-0.019 0.030-0.040 0.064-0.021 0.032-0.046 0.068-0.072 0.107-0.025 0.039-0.049 0.076-0.072 0.11-0.021 0.034-0.035 0.054-0.040 0.062-0.004 0.002-0.008 0.008-0.013 0.019-0.004 0.009-0.007 0.015-0.011 0.019v0.019c0 0.025 0.011 0.043 0.032 0.054s0.046 0.021 0.075 0.029c0.029 0.007 0.057 0.017 0.086 0.030 0.030 0.011 0.054 0.028 0.070 0.053 0 0.023-0.006 0.039-0.019 0.048-0.011 0.007-0.024 0.012-0.040 0.016h-0.75c-0.014 0-0.023-0.005-0.027-0.016-0.002-0.012-0.003-0.022-0.003-0.027v-0.022c0.021-0.025 0.046-0.045 0.072-0.062 0.029-0.016 0.057-0.030 0.086-0.043 0.030-0.013 0.061-0.024 0.091-0.035 0.030-0.012 0.059-0.028 0.086-0.046 0.007-0.007 0.021-0.021 0.043-0.040 0.021-0.021 0.044-0.044 0.067-0.067 0.025-0.023 0.048-0.046 0.070-0.067 0.023-0.021 0.039-0.037 0.048-0.046 0.046-0.054 0.086-0.109 0.118-0.166 0.034-0.059 0.067-0.119 0.099-0.179 0.004-0.005 0.012-0.013 0.024-0.024 0.012-0.012 0.020-0.021 0.021-0.024 0.005-0.007 0.012-0.017 0.021-0.029 0.011-0.014 0.020-0.028 0.027-0.040 0.009-0.012 0.016-0.023 0.021-0.032 0.007-0.011 0.011-0.017 0.011-0.019 0 0 0-0.004 0-0.013 0.002-0.011 0.003-0.022 0.003-0.035 0.002-0.012 0.003-0.024 0.003-0.035 0.002-0.012 0.003-0.021 0.003-0.027s-0.001-0.013-0.003-0.024c0-0.011-0.001-0.022-0.003-0.035 0-0.012-0.001-0.024-0.003-0.035 0-0.012 0-0.020 0-0.024-0.050-0.030-0.088-0.065-0.113-0.104-0.025-0.041-0.048-0.087-0.070-0.139-0.002-0.005-0.007-0.015-0.016-0.029s-0.018-0.029-0.027-0.043c-0.009-0.016-0.018-0.030-0.027-0.043-0.007-0.014-0.012-0.022-0.013-0.024-0.007-0.014-0.018-0.037-0.032-0.067-0.012-0.030-0.023-0.052-0.032-0.064-0.004-0.002-0.007-0.007-0.011-0.016-0.004-0.011-0.007-0.021-0.011-0.032s-0.007-0.021-0.011-0.032c-0.002-0.011-0.004-0.018-0.005-0.021l-0.005-0.005c-0.002-0.002-0.004-0.003-0.008-0.003-0.002-0.002-0.004-0.004-0.005-0.008-0.007-0.005-0.013-0.011-0.019-0.016-0.036-0.045-0.064-0.091-0.086-0.139-0.020-0.048-0.046-0.093-0.080-0.134-0.023-0.027-0.047-0.050-0.072-0.070-0.025-0.021-0.051-0.041-0.078-0.059-0.025-0.018-0.051-0.036-0.078-0.054s-0.053-0.038-0.078-0.062c-0.014-0.009-0.023-0.020-0.027-0.032-0.002-0.014-0.003-0.029-0.003-0.043 0-0.020 0.004-0.032 0.013-0.038s0.023-0.008 0.043-0.008h0.011c0 0 0.004 0.001 0.011 0.003 0.009 0.002 0.018 0.004 0.027 0.005 0.011 0.002 0.020 0.004 0.027 0.005 0.009 0.002 0.015 0.003 0.019 0.003h0.013c0.114 0 0.227-0.004 0.338-0.011 0.113-0.007 0.225-0.011 0.338-0.011 0.043 0 0.074 0.005 0.094 0.016 0.021 0.009 0.032 0.034 0.032 0.075 0 0.036-0.007 0.061-0.021 0.075-0.014 0.012-0.030 0.022-0.048 0.029s-0.034 0.016-0.048 0.027c-0.014 0.011-0.021 0.032-0.021 0.064 0 0.014 0.005 0.033 0.016 0.056 0.011 0.021 0.020 0.037 0.027 0.046 0.005 0.009 0.017 0.031 0.035 0.067 0.020 0.034 0.040 0.071 0.062 0.113 0.023 0.039 0.045 0.076 0.064 0.11s0.032 0.055 0.038 0.064c0.012 0.018 0.023 0.032 0.032 0.043 0.011 0.011 0.023 0.016 0.038 0.016 0.021 0 0.046-0.009 0.072-0.027 0.029-0.020 0.065-0.046 0.11-0.080 0.018-0.014 0.036-0.037 0.054-0.067 0.020-0.032 0.038-0.064 0.054-0.096 0.016-0.034 0.030-0.066 0.043-0.096 0.014-0.030 0.026-0.052 0.035-0.064zM19.894 30.64c-0.007 0-0.018 0.001-0.032 0.003-0.012 0-0.026 0-0.040 0-0.013 0-0.024 0.001-0.035 0.002-0.011 0-0.016 0-0.016 0l-0.064 0.024-0.329-0.019h-0.702c-0.027-0.009-0.050-0.015-0.070-0.019-0.018-0.003-0.039-0.005-0.064-0.005-0.020 0-0.035 0.001-0.046 0.003s-0.025 0.007-0.043 0.016c-0.018 0-0.048-0.001-0.091-0.002-0.041-0.002-0.085-0.003-0.131-0.003s-0.091 0.001-0.134 0.003c-0.041 0.002-0.069 0.002-0.083 0.002-0.005 0-0.015 0.001-0.029 0.003-0.012 0.002-0.027 0.003-0.043 0.003-0.014 0.002-0.029 0.004-0.043 0.006-0.012 0.002-0.021 0.002-0.024 0.002-0.005 0.002-0.012 0.003-0.019 0.003-0.005 0.002-0.011 0.003-0.016 0.003-0.004 0-0.007 0-0.011 0-0.048 0-0.085-0.006-0.11-0.016-0.023-0.009-0.044-0.038-0.062-0.086-0.007 0-0.011-0.002-0.011-0.006-0.002-0.002-0.002-0.004 0-0.008 0-0.014 0.004-0.030 0.013-0.045 0.011-0.018 0.023-0.034 0.038-0.048 0.016-0.014 0.032-0.026 0.048-0.035 0.018-0.011 0.035-0.016 0.051-0.016h0.254c0.004 0 0.015-0.010 0.035-0.029 0.020-0.021 0.036-0.038 0.048-0.048 0.004-0.004 0.007-0.011 0.011-0.021 0.005-0.012 0.008-0.021 0.008-0.027 0.021-0.105 0.034-0.21 0.038-0.313s0.005-0.212 0.005-0.324c0-0.009 0-0.029 0-0.059 0.002-0.032 0.003-0.070 0.003-0.113 0.002-0.043 0.004-0.087 0.005-0.134 0.002-0.048 0.003-0.094 0.003-0.137 0.002-0.043 0.003-0.079 0.003-0.11 0.002-0.032 0.003-0.054 0.003-0.064v-0.145c0-0.143-0.003-0.284-0.008-0.423s-0.008-0.278-0.008-0.415v-0.019c0-0.005 0.001-0.019 0.003-0.040 0.002-0.023 0.004-0.047 0.005-0.072s0.004-0.048 0.005-0.070c0.002-0.021 0.003-0.035 0.003-0.040 0.002-0.016 0.004-0.044 0.005-0.083 0.002-0.041 0.004-0.084 0.005-0.129 0.002-0.046 0.004-0.089 0.005-0.129s0.003-0.067 0.003-0.083c-0.009-0.027-0.014-0.054-0.016-0.083-0.002-0.030-0.004-0.059-0.008-0.086-0.004-0.029-0.011-0.055-0.021-0.080s-0.028-0.046-0.051-0.064c-0.011-0.002-0.029-0.004-0.056-0.005s-0.055-0.003-0.086-0.003c-0.029-0.002-0.056-0.004-0.083-0.005s-0.045-0.004-0.054-0.005c-0.029-0.004-0.060-0.008-0.094-0.013-0.034-0.007-0.065-0.017-0.094-0.029-0.029-0.014-0.053-0.033-0.072-0.056-0.018-0.023-0.027-0.054-0.027-0.091l0.011-0.005c0.004-0.002 0.006-0.004 0.008-0.005s0.004-0.003 0.008-0.003c0.043-0.025 0.081-0.041 0.115-0.048 0.034-0.009 0.078-0.013 0.131-0.013h0.013c0.005 0.005 0.011 0.010 0.016 0.013 0.011 0.007 0.018 0.011 0.021 0.011 0.089 0.007 0.179 0.012 0.268 0.016 0.089 0.002 0.179 0.003 0.271 0.003 0.075 0 0.148-0.001 0.22-0.003s0.142-0.003 0.212-0.003h0.592c0.007 0 0.019-0.001 0.035-0.003s0.033-0.003 0.051-0.003c0.020-0.002 0.038-0.004 0.056-0.005s0.031-0.003 0.040-0.003h0.035c0.005 0 0.018 0.001 0.038 0.003s0.041 0.004 0.064 0.005c0.023 0 0.045 0.001 0.064 0.003 0.021 0.002 0.035 0.003 0.040 0.003h0.319c0.014 0.002 0.035 0.004 0.062 0.005 0.029 0.002 0.056 0.004 0.083 0.005 0.029 0.002 0.054 0.004 0.075 0.008 0.021 0.002 0.033 0.004 0.035 0.005 0.002 0 0.009 0.003 0.021 0.008s0.026 0.012 0.040 0.021c0.016 0.007 0.031 0.015 0.046 0.024 0.016 0.009 0.029 0.017 0.038 0.024 0.018 0.011 0.032 0.037 0.043 0.078 0.012 0.039 0.022 0.083 0.029 0.131s0.012 0.096 0.016 0.142c0.005 0.046 0.010 0.082 0.013 0.107 0 0.009 0.001 0.025 0.003 0.048 0.004 0.021 0.006 0.045 0.008 0.070s0.004 0.049 0.005 0.072c0.002 0.023 0.003 0.039 0.003 0.048v0.147c-0.009 0.016-0.021 0.027-0.035 0.032-0.014 0.004-0.029 0.005-0.046 0.005h-0.019c-0.020-0.012-0.034-0.025-0.043-0.038s-0.016-0.025-0.021-0.038c-0.005-0.014-0.011-0.029-0.016-0.043-0.004-0.014-0.011-0.029-0.021-0.046 0-0.002-0.004-0.005-0.011-0.011-0.005-0.007-0.012-0.014-0.019-0.021s-0.014-0.013-0.021-0.019c-0.007-0.007-0.012-0.012-0.013-0.013-0.025-0.036-0.050-0.076-0.075-0.121-0.023-0.046-0.051-0.089-0.083-0.129-0.002-0.004-0.008-0.010-0.019-0.019-0.009-0.009-0.015-0.017-0.019-0.024-0.002-0.004-0.008-0.006-0.019-0.008-0.011-0.004-0.018-0.007-0.021-0.011-0.021-0.014-0.038-0.030-0.051-0.048s-0.026-0.035-0.040-0.051c-0.012-0.018-0.027-0.035-0.043-0.051s-0.038-0.029-0.067-0.040c-0.014 0-0.042-0.001-0.083-0.003-0.039-0.004-0.081-0.006-0.126-0.008-0.045-0.004-0.087-0.006-0.129-0.008-0.039-0.004-0.067-0.006-0.083-0.008h-0.139c-0.002 0-0.010-0.001-0.024-0.003-0.013-0.004-0.027-0.006-0.043-0.008-0.016-0.004-0.031-0.006-0.046-0.008-0.014-0.004-0.023-0.005-0.027-0.005h-0.078c-0.007 0-0.023 0.002-0.048 0.005-0.023 0.002-0.049 0.004-0.078 0.008-0.027 0.002-0.053 0.004-0.078 0.008-0.023 0.002-0.038 0.003-0.043 0.003h-0.158c-0.007 0-0.015 0.003-0.024 0.008-0.009 0.004-0.013 0.007-0.013 0.011v0.332c-0.002 0.057-0.010 0.112-0.024 0.163s-0.021 0.104-0.021 0.158c0 0.080 0.004 0.162 0.011 0.244 0.009 0.080 0.013 0.163 0.013 0.246 0 0.057-0.004 0.115-0.013 0.174-0.007 0.059-0.011 0.12-0.011 0.182v0.019c0.005 0.005 0.013 0.013 0.021 0.024 0.009 0.009 0.017 0.013 0.024 0.013h0.137c0.004 0 0.012-0.001 0.024-0.003 0.012-0.004 0.026-0.006 0.040-0.008 0.014-0.004 0.027-0.006 0.038-0.008 0.012-0.004 0.020-0.005 0.021-0.005h0.238c0.012 0 0.035-0.001 0.067-0.003 0.034-0.002 0.069-0.003 0.104-0.003 0.038-0.002 0.072-0.004 0.104-0.005s0.054-0.003 0.067-0.003c0.027-0.023 0.046-0.057 0.059-0.102 0.012-0.046 0.025-0.085 0.038-0.115 0.002-0.005 0.004-0.018 0.005-0.038 0.004-0.021 0.007-0.044 0.011-0.067s0.007-0.045 0.011-0.064c0.004-0.021 0.007-0.035 0.011-0.040 0-0.002 0.002-0.006 0.005-0.013 0.005-0.009 0.011-0.017 0.016-0.024 0.005-0.009 0.010-0.017 0.013-0.024 0.005-0.007 0.009-0.012 0.011-0.013 0.007-0.023 0.012-0.048 0.013-0.075s0.006-0.051 0.013-0.072c0.007-0.023 0.019-0.042 0.035-0.056s0.042-0.021 0.078-0.021c0.039 0 0.065 0.009 0.078 0.027s0.019 0.047 0.019 0.088c0 0.014-0.001 0.025-0.003 0.032-0.002 0.005-0.005 0.018-0.011 0.038 0 0.002-0.001 0.006-0.003 0.013s-0.003 0.015-0.003 0.024c0 0.014 0.001 0.028 0.003 0.040 0.002 0.011 0.003 0.019 0.003 0.024-0.002 0.011-0.004 0.033-0.005 0.067s-0.004 0.073-0.008 0.118c-0.004 0.045-0.007 0.093-0.011 0.145-0.004 0.050-0.007 0.098-0.011 0.145-0.004 0.045-0.007 0.084-0.011 0.118-0.002 0.034-0.004 0.057-0.005 0.070 0 0.004 0.001 0.021 0.003 0.051 0.002 0.029 0.003 0.058 0.003 0.088 0 0.014-0.002 0.030-0.005 0.048-0.004 0.016-0.006 0.027-0.008 0.032 0 0-0.002 0.004-0.005 0.013-0.002 0.009-0.004 0.020-0.008 0.032-0.002 0.011-0.004 0.021-0.008 0.032-0.002 0.009-0.003 0.015-0.003 0.019 0 0.005 0.001 0.018 0.003 0.038s0.004 0.041 0.005 0.064c0.004 0.021 0.006 0.042 0.008 0.062 0.002 0.018 0.003 0.029 0.003 0.035 0 0.007 0 0.018 0 0.032 0.002 0.012 0.003 0.026 0.003 0.040 0 0.012 0 0.025 0 0.038 0.002 0.012 0.003 0.022 0.003 0.029 0 0.030-0.004 0.058-0.011 0.083-0.005 0.025-0.018 0.053-0.038 0.083-0.002 0.009-0.011 0.019-0.027 0.029-0.014 0.009-0.023 0.013-0.027 0.013s-0.013-0.004-0.029-0.013c-0.016-0.011-0.027-0.020-0.032-0.029-0.030-0.025-0.052-0.060-0.064-0.104-0.011-0.045-0.018-0.093-0.021-0.145-0.004-0.054-0.005-0.108-0.005-0.163s-0.004-0.106-0.011-0.153c-0.005-0.048-0.017-0.088-0.035-0.121s-0.046-0.052-0.086-0.059c-0.014 0.004-0.037 0.005-0.067 0.005s-0.063 0-0.099 0c-0.038 0-0.073 0-0.107 0-0.032 0-0.054-0.002-0.064-0.005-0.009 0-0.023-0.001-0.043-0.003s-0.040-0.003-0.062-0.003c-0.020-0.002-0.039-0.004-0.059-0.005-0.018-0.002-0.030-0.003-0.038-0.003-0.002-0.005-0.009-0.012-0.021-0.019s-0.021-0.011-0.024-0.011h-0.027c-0.046 0-0.091 0.012-0.134 0.035-0.041 0.021-0.066 0.056-0.075 0.104-0.002 0.012-0.006 0.038-0.013 0.075-0.005 0.036-0.012 0.075-0.019 0.118-0.005 0.043-0.012 0.085-0.019 0.126-0.005 0.039-0.009 0.069-0.011 0.088v0.035c0 0.014 0.001 0.038 0.003 0.070s0.004 0.067 0.005 0.104c0.002 0.036 0.004 0.071 0.005 0.104 0.004 0.032 0.005 0.054 0.005 0.067 0.009 0.014 0.014 0.025 0.016 0.032s0.003 0.015 0.003 0.024c0 0.070-0.004 0.137-0.011 0.204s-0.011 0.136-0.011 0.209c0 0.007 0 0.022 0 0.046 0.002 0.023 0.003 0.039 0.003 0.048 0.002 0.004 0.006 0.010 0.013 0.019 0.007 0.007 0.014 0.015 0.021 0.024 0.009 0.007 0.018 0.014 0.027 0.021s0.015 0.012 0.019 0.013c0.002 0.004 0.010 0.006 0.024 0.008 0.016 0.002 0.034 0.004 0.054 0.005 0.020 0 0.038 0.002 0.056 0.005 0.020 0.002 0.035 0.004 0.046 0.005 0.021 0 0.058 0.001 0.11 0.003 0.054 0.002 0.11 0.004 0.169 0.005 0.061 0.002 0.117 0.004 0.169 0.005 0.054 0 0.091 0 0.113 0 0.021 0.009 0.043 0.015 0.064 0.019 0.023 0.004 0.046 0.005 0.067 0.005h0.196c0.002 0 0.008-0.001 0.019-0.003 0.011-0.004 0.022-0.006 0.035-0.008 0.014-0.004 0.027-0.006 0.038-0.008 0.011-0.004 0.017-0.005 0.019-0.005h0.509c0.020-0.005 0.038-0.015 0.056-0.029 0.018-0.016 0.035-0.033 0.051-0.051 0.016-0.020 0.030-0.039 0.043-0.059 0.012-0.021 0.023-0.040 0.032-0.056 0.005-0.005 0.012-0.018 0.021-0.038 0.011-0.020 0.021-0.040 0.029-0.062 0.011-0.023 0.020-0.045 0.029-0.064s0.014-0.031 0.016-0.035c0.004-0.005 0.012-0.016 0.024-0.032s0.019-0.026 0.019-0.029c0.002-0.004 0.005-0.013 0.011-0.029s0.008-0.026 0.008-0.029c0.002-0.002 0.006-0.007 0.013-0.016 0.009-0.009 0.018-0.018 0.027-0.027s0.017-0.018 0.024-0.027c0.007-0.009 0.012-0.015 0.013-0.019 0.002-0.002 0.005-0.007 0.011-0.016 0.007-0.011 0.013-0.022 0.019-0.035 0.007-0.014 0.012-0.027 0.016-0.038 0.005-0.012 0.009-0.020 0.011-0.024 0.004-0.007 0.013-0.018 0.029-0.032 0.018-0.014 0.028-0.023 0.029-0.027 0.004-0.004 0.008-0.006 0.013-0.008 0.005-0.004 0.010-0.007 0.013-0.011 0.005-0.004 0.011-0.006 0.016-0.008 0.007 0.004 0.018 0.012 0.032 0.027s0.025 0.025 0.032 0.032v0.013c0 0.021-0.004 0.042-0.011 0.062-0.005 0.020-0.008 0.039-0.008 0.059 0 0.025 0.003 0.047 0.008 0.067 0.007 0.018 0.011 0.039 0.011 0.064v0.021c0 0.005-0.004 0.015-0.011 0.029-0.005 0.014-0.008 0.025-0.008 0.032v0.313c-0.002 0.021-0.004 0.049-0.008 0.083-0.004 0.032-0.011 0.063-0.021 0.094-0.011 0.029-0.026 0.054-0.046 0.075s-0.046 0.032-0.078 0.032h-0.013c-0.005-0.002-0.014-0.003-0.027-0.005s-0.025-0.004-0.038-0.006c-0.012-0.002-0.024-0.003-0.035-0.005-0.009-0.002-0.014-0.003-0.016-0.003l-0.016-0.011c-0.011-0.007-0.016-0.012-0.016-0.013h-0.029c-0.063 0.021-0.121 0.032-0.177 0.032s-0.113 0.004-0.174 0.011c-0.005 0-0.015 0.001-0.029 0.003s-0.030 0.004-0.048 0.006c-0.016 0.003-0.031 0.007-0.046 0.011s-0.023 0.006-0.027 0.008h-0.013c-0.032 0-0.063-0.004-0.091-0.013-0.027-0.009-0.058-0.013-0.094-0.013-0.004 0-0.013 0-0.029 0-0.014-0.002-0.031-0.002-0.051-0.002-0.018 0-0.037 0-0.056 0-0.018-0.002-0.033-0.003-0.046-0.003z"></path>
</symbol>
<symbol id="icon-logos1_mastercard" viewBox="0 0 42 32">
<path fill="#151618" style="fill: var(--color2, #151618)" d="M7.563 31.841v-2.118c0-0.812-0.5-1.341-1.356-1.341-0.428 0-0.892 0.141-1.213 0.6-0.25-0.388-0.606-0.6-1.141-0.6-0.357 0-0.713 0.106-0.999 0.494v-0.424h-0.749v3.389h0.749v-1.871c0-0.6 0.321-0.883 0.821-0.883s0.749 0.318 0.749 0.883v1.871h0.749v-1.871c0-0.6 0.357-0.883 0.82-0.883 0.5 0 0.749 0.318 0.749 0.883v1.871h0.821zM18.657 28.452h-1.213v-1.024h-0.749v1.024h-0.678v0.671h0.678v1.553c0 0.777 0.321 1.235 1.177 1.235 0.321 0 0.678-0.106 0.928-0.247l-0.214-0.636c-0.214 0.141-0.464 0.176-0.642 0.176-0.357 0-0.499-0.212-0.499-0.565v-1.518h1.213v-0.671zM25.007 28.382c-0.428 0-0.713 0.212-0.892 0.494v-0.424h-0.749v3.389h0.749v-1.906c0-0.565 0.25-0.883 0.713-0.883 0.143 0 0.321 0.035 0.464 0.071l0.214-0.706c-0.143-0.035-0.357-0.035-0.499-0.035v-0zM15.411 28.735c-0.357-0.247-0.856-0.353-1.391-0.353-0.856 0-1.427 0.424-1.427 1.094 0 0.565 0.428 0.883 1.177 0.988l0.357 0.035c0.392 0.070 0.606 0.176 0.606 0.353 0 0.247-0.285 0.424-0.785 0.424s-0.892-0.177-1.142-0.353l-0.357 0.565c0.392 0.282 0.928 0.424 1.463 0.424 0.999 0 1.57-0.459 1.57-1.094 0-0.6-0.464-0.918-1.177-1.024l-0.357-0.035c-0.321-0.035-0.571-0.106-0.571-0.318 0-0.247 0.25-0.388 0.642-0.388 0.428 0 0.856 0.176 1.070 0.282l0.321-0.6zM35.316 28.382c-0.428 0-0.714 0.212-0.892 0.494v-0.424h-0.749v3.389h0.749v-1.906c0-0.565 0.25-0.883 0.713-0.883 0.143 0 0.321 0.035 0.464 0.071l0.214-0.706c-0.143-0.035-0.357-0.035-0.499-0.035zM25.756 30.147c0 1.024 0.713 1.765 1.819 1.765 0.499 0 0.856-0.106 1.213-0.388l-0.357-0.6c-0.285 0.212-0.571 0.317-0.892 0.317-0.606 0-1.035-0.424-1.035-1.094 0-0.635 0.428-1.059 1.035-1.094 0.321 0 0.606 0.106 0.892 0.318l0.357-0.6c-0.357-0.283-0.713-0.388-1.213-0.388-1.106 0-1.819 0.741-1.819 1.765zM32.676 30.147v-1.694h-0.749v0.424c-0.25-0.318-0.606-0.494-1.070-0.494-0.963 0-1.712 0.741-1.712 1.765s0.749 1.765 1.712 1.765c0.499 0 0.856-0.176 1.070-0.494v0.424h0.749v-1.694zM29.929 30.147c0-0.6 0.392-1.094 1.034-1.094 0.607 0 1.035 0.459 1.035 1.094 0 0.6-0.428 1.094-1.035 1.094-0.642-0.035-1.034-0.494-1.034-1.094zM20.976 28.382c-0.999 0-1.712 0.706-1.712 1.765s0.713 1.765 1.748 1.765c0.499 0 0.999-0.141 1.391-0.459l-0.357-0.529c-0.285 0.212-0.642 0.353-0.999 0.353-0.464 0-0.928-0.212-1.035-0.812h2.533v-0.282c0.036-1.094-0.606-1.8-1.57-1.8zM20.976 29.017c0.464 0 0.785 0.283 0.856 0.812h-1.784c0.071-0.459 0.392-0.812 0.928-0.812zM39.561 30.147v-3.036h-0.749v1.765c-0.25-0.318-0.606-0.494-1.070-0.494-0.963 0-1.712 0.741-1.712 1.765s0.749 1.765 1.712 1.765c0.5 0 0.856-0.176 1.070-0.494v0.424h0.749v-1.694zM36.814 30.147c0-0.6 0.392-1.094 1.034-1.094 0.607 0 1.035 0.459 1.035 1.094 0 0.6-0.428 1.094-1.035 1.094-0.642-0.035-1.034-0.494-1.034-1.094zM11.772 30.147v-1.694h-0.749v0.424c-0.25-0.318-0.606-0.494-1.070-0.494-0.963 0-1.712 0.741-1.712 1.765s0.749 1.765 1.712 1.765c0.5 0 0.856-0.176 1.070-0.494v0.424h0.749v-1.694zM8.989 30.147c0-0.6 0.392-1.094 1.034-1.094 0.606 0 1.035 0.459 1.035 1.094 0 0.6-0.428 1.094-1.035 1.094-0.642-0.035-1.034-0.494-1.034-1.094z"></path>
<path fill="#ff5f00" style="fill: var(--color3, #ff5f00)" d="M15.161 2.718h11.237v19.98h-11.237v-19.98z"></path>
<path fill="#eb001b" style="fill: var(--color4, #eb001b)" d="M15.874 12.708c0-4.059 1.926-7.66 4.887-9.99-2.176-1.694-4.923-2.718-7.919-2.718-7.099 0-12.842 5.683-12.842 12.708s5.743 12.708 12.842 12.708c2.997 0 5.743-1.024 7.919-2.718-2.961-2.294-4.887-5.93-4.887-9.99z"></path>
<path fill="#f79e1b" style="fill: var(--color5, #f79e1b)" d="M41.559 12.708c0 7.025-5.743 12.708-12.842 12.708-2.996 0-5.743-1.024-7.919-2.718 2.996-2.33 4.887-5.93 4.887-9.99s-1.926-7.66-4.887-9.99c2.176-1.694 4.923-2.718 7.919-2.718 7.099 0 12.842 5.719 12.842 12.708z"></path>
</symbol>
<symbol id="icon-logos2_visa" viewBox="0 0 99 32">
<path d="M51.304 10.23c-0.056 4.458 3.977 6.945 7.015 8.424 3.122 1.517 4.17 2.491 4.158 3.848-0.023 2.077-2.49 2.993-4.798 3.029-4.028 0.062-6.369-1.086-8.231-1.955l-1.451 6.781c1.868 0.86 5.326 1.61 8.912 1.642 8.419 0 13.926-4.151 13.956-10.587 0.033-8.168-11.31-8.62-11.233-12.272 0.027-1.107 1.084-2.288 3.402-2.589 1.147-0.152 4.313-0.268 7.903 1.383l1.409-6.561c-1.931-0.702-4.412-1.375-7.501-1.375-7.924 0-13.497 4.208-13.542 10.23zM85.885 0.565c-1.537 0-2.833 0.896-3.411 2.27l-12.025 28.683h8.412l1.674-4.621h10.279l0.971 4.621h7.414l-6.47-30.953h-6.845zM87.061 8.927l2.428 11.623h-6.649l4.221-11.623zM41.104 0.566l-6.631 30.952h8.016l6.628-30.953-8.013 0.001zM29.246 0.565l-8.344 21.068-3.375-17.913c-0.396-2-1.96-3.154-3.697-3.154h-13.639l-0.191 0.899c2.8 0.607 5.981 1.586 7.909 2.633 1.18 0.64 1.516 1.199 1.903 2.72l6.393 24.701h8.471l12.987-30.953-8.418-0z"></path>
</symbol>
<symbol id="icon-logos3_google-pay" viewBox="0 0 77 32">
<path fill="#5f6368" style="fill: var(--color6, #5f6368)" d="M54.817 8.636c2.126 0 3.769 0.602 5.025 1.807s1.836 2.81 1.836 4.817v9.635h-2.706v-2.208h-0.097c-1.159 1.807-2.802 2.71-4.735 2.71-1.643 0-3.092-0.502-4.252-1.505-1.063-1.004-1.739-2.409-1.739-3.914 0-1.606 0.58-2.911 1.739-3.914s2.803-1.405 4.735-1.405c1.739 0 3.093 0.301 4.155 1.004v-0.702c0-0.937-0.337-1.873-1.010-2.484l-0.15-0.126c-0.773-0.703-1.739-1.104-2.802-1.104-1.643 0-2.899 0.703-3.769 2.108l-2.513-1.606c1.546-2.108 3.575-3.111 6.281-3.111zM41.191 1.812c1.734 0 3.382 0.627 4.699 1.795l0.229 0.212c1.353 1.204 2.029 3.011 2.029 4.918s-0.676 3.613-2.029 4.918c-1.353 1.305-2.996 2.007-4.929 2.007l-4.639-0.1v9.334h-2.899v-23.083l7.538 0zM55.203 17.067c-1.159 0-2.126 0.301-2.899 0.903-0.773 0.502-1.16 1.204-1.16 2.107 0 0.803 0.387 1.505 0.966 1.907 0.677 0.502 1.45 0.803 2.223 0.803 1.082 0 2.165-0.437 3.011-1.23l0.178-0.175c0.966-0.903 1.45-2.007 1.45-3.212-0.87-0.702-2.126-1.104-3.769-1.104l-0 0zM41.385 4.622h-4.832v8.029h4.832c1.063 0 2.126-0.401 2.802-1.204 1.546-1.505 1.546-4.014 0.097-5.52l-0.097-0.1c-0.773-0.803-1.74-1.305-2.803-1.204l0-0zM77.333 9.138l-9.567 22.782h-2.899l3.575-7.928-6.281-14.753h3.093l4.542 11.341h0.097l4.445-11.341h2.996v-0.1z"></path>
<path fill="#4285f4" style="fill: var(--color7, #4285f4)" d="M25.053 13.554c0-0.903-0.097-1.806-0.193-2.71h-12.079v5.118h6.861c-0.29 1.606-1.16 3.111-2.512 4.014v3.312h4.155c2.416-2.308 3.769-5.721 3.769-9.735l-0-0z"></path>
<path fill="#34a853" style="fill: var(--color8, #34a853)" d="M12.78 26.5c3.479 0 6.378-1.204 8.504-3.212l-4.155-3.312c-1.16 0.803-2.609 1.305-4.349 1.305-3.286 0-6.185-2.308-7.151-5.52h-4.252v3.412c2.223 4.516 6.571 7.326 11.403 7.326z"></path>
<path fill="#fbbc04" style="fill: var(--color9, #fbbc04)" d="M5.629 15.762c-0.58-1.606-0.58-3.412 0-5.118v-3.412h-4.252c-1.836 3.713-1.836 8.129 0 11.943l4.252-3.412z"></path>
<path fill="#ea4335" style="fill: var(--color10, #ea4335)" d="M12.78 5.224c1.836 0 3.575 0.703 4.928 2.007l3.672-3.814c-2.319-2.208-5.412-3.513-8.504-3.412-4.832 0-9.277 2.81-11.403 7.326l4.252 3.412c0.87-3.212 3.769-5.52 7.055-5.52z"></path>
</symbol>
<symbol id="icon-logos4_paypal" viewBox="0 0 27 32">
<path fill="#27346a" style="fill: var(--color11, #27346a)" d="M22.621 2.491c-1.451-1.683-4.075-2.404-7.432-2.404h-9.742c-0.332 0-0.653 0.121-0.906 0.34s-0.42 0.523-0.472 0.857l-4.056 26.169c-0.081 0.516 0.312 0.983 0.826 0.983h6.014l1.51-9.745-0.047 0.305c0.108-0.689 0.687-1.197 1.373-1.197h2.858c5.614 0 10.011-2.32 11.295-9.030 0.038-0.198 0.071-0.392 0.1-0.58-0.162-0.087-0.162-0.087 0 0 0.382-2.48-0.003-4.168-1.321-5.697z"></path>
<path fill="#27346a" style="fill: var(--color11, #27346a)" d="M10.666 7.294c0.164-0.080 0.344-0.121 0.526-0.121h7.637c0.904 0 1.748 0.060 2.519 0.186 0.216 0.035 0.43 0.077 0.643 0.125 0.302 0.068 0.601 0.151 0.895 0.249 0.379 0.129 0.732 0.279 1.056 0.454 0.382-2.481-0.003-4.168-1.322-5.697-1.452-1.683-4.075-2.404-7.432-2.404h-9.742c-0.686 0-1.269 0.508-1.377 1.197l-4.056 26.168c-0.081 0.517 0.312 0.984 0.826 0.984h6.015l3.134-20.214c0.031-0.199 0.109-0.387 0.227-0.548s0.273-0.291 0.451-0.378z"></path>
<path fill="#2790c3" style="fill: var(--color12, #2790c3)" d="M23.844 8.768c-1.284 6.709-5.68 9.030-11.295 9.030h-2.859c-0.686 0-1.265 0.508-1.372 1.197l-1.879 12.117c-0.070 0.451 0.273 0.861 0.722 0.861h5.070c0.29-0 0.571-0.106 0.792-0.298s0.367-0.458 0.412-0.749l0.049-0.263 0.956-6.16 0.062-0.34c0.045-0.292 0.192-0.558 0.412-0.749s0.502-0.297 0.792-0.297h0.759c4.911 0 8.757-2.030 9.88-7.899 0.469-2.453 0.226-4.501-1.014-5.939-0.376-0.436-0.844-0.796-1.388-1.089-0.029 0.19-0.061 0.382-0.1 0.58z"></path>
<path fill="#1f264f" style="fill: var(--color13, #1f264f)" d="M22.599 7.642c-0.2-0.059-0.402-0.112-0.606-0.158-0.213-0.048-0.428-0.089-0.643-0.124-0.772-0.127-1.615-0.187-2.52-0.187h-7.636c-0.182-0-0.362 0.041-0.526 0.122-0.179 0.087-0.334 0.216-0.452 0.378s-0.196 0.35-0.226 0.548l-1.623 10.469-0.047 0.305c0.107-0.689 0.686-1.197 1.372-1.197h2.859c5.614 0 10.010-2.32 11.295-9.030 0.038-0.198 0.070-0.391 0.1-0.58-0.325-0.175-0.677-0.326-1.056-0.453-0.096-0.032-0.192-0.063-0.289-0.092z"></path>
</symbol>
<symbol id="icon-phone" viewBox="0 0 32 32">
<path d="M24.023 31.58c-3.078-0.771-9.38-2.945-15.093-8.658s-7.887-12.015-8.658-15.093c-0.443-1.769 0.355-3.476 1.708-4.443l3.548-2.534c2.076-1.483 4.964-0.98 6.416 1.118l2.234 3.226c0.948 1.37 0.621 3.247-0.734 4.215l-1.781 1.272c0.27 1.031 1.108 3.148 3.733 5.774s4.743 3.464 5.774 3.733l1.272-1.781c0.968-1.355 2.845-1.682 4.215-0.734l3.226 2.234c2.097 1.452 2.601 4.34 1.118 6.416l-2.534 3.548c-0.967 1.353-2.674 2.151-4.443 1.708zM11.085 20.767c5.195 5.195 10.928 7.168 13.679 7.857 0.402 0.101 0.888-0.055 1.222-0.523l2.534-3.548c0.494-0.692 0.327-1.655-0.373-2.139l-3.226-2.233-1.365 1.911c-0.558 0.781-1.59 1.394-2.791 1.134-1.499-0.323-4.271-1.361-7.525-4.615s-4.291-6.025-4.615-7.525c-0.259-1.201 0.353-2.233 1.134-2.791l1.911-1.365-2.234-3.226c-0.484-0.699-1.447-0.867-2.139-0.373l-3.548 2.534c-0.468 0.334-0.624 0.82-0.523 1.222 0.689 2.75 2.662 8.483 7.857 13.679z"></path>
</symbol>
<symbol id="icon-prioritise-1" viewBox="0 0 32 32">
<path fill="#754e29" style="fill: var(--color1, #754e29)" d="M13.63 0.082l-0.008-0.011-0.020 0.015c-7.645 0.813-13.602 7.288-13.602 15.161 0 3.525 1.195 6.771 3.203 9.354v0.003h0.003c1.269 1.637 2.858 2.997 4.67 3.997s3.809 1.62 5.868 1.821c0.072-0.726 0.248-1.485 0.513-2.252-3.285-0.244-6.353-1.737-8.575-4.172 0.084-0.366 0.122-0.791 0.152-1.16l0.014-0.18c0.027-0.335 0.053-0.659 0.096-0.985 0.107-0.804 0.289-1.34 0.574-1.644 0.365-0.392 0.74-0.457 1.524-0.596l0.142-0.026c0.402-0.070 0.94-0.178 1.457-0.46 0.553-0.302 1.020-0.762 1.372-1.441 0.355-0.683 0.329-1.388 0.231-1.944-0.089-0.446-0.206-0.885-0.35-1.316-0.024-0.075-0.047-0.15-0.070-0.226-0.312-1.018-0.35-1.514-0.093-1.906 0.28-0.427 0.664-0.525 1.663-0.784l0.129-0.032c1.014-0.262 2.388-0.701 3.183-2.398 0.862-1.837 0.376-3.909-0.152-5.315-0.167-0.442-0.356-0.874-0.568-1.296 0.081-0.003 0.161-0.003 0.242-0.003 2.445-0.004 4.84 0.689 6.906 1.997-0.292 0.389-0.684 0.901-1.121 1.449-0.959 1.2-2.041 2.435-2.778 2.988-0.339 0.248-0.597 0.592-0.74 0.988-0.123 0.36-0.152 0.745-0.084 1.119 0.107 0.634 0.443 1.229 0.742 1.683 0.248 0.38 0.541 0.762 0.786 1.086l0.168 0.218c0.142 0.191 0.259 0.348 0.346 0.483 0.044 0.066 0.076 0.119 0.097 0.159 0.021 0.038 0.029 0.058 0.030 0.059 0.061 0.168 0.126 0.442 0.203 0.823l0.034 0.162c0.676-0.302 1.409-0.534 2.193-0.678-0.069-0.372-0.165-0.739-0.286-1.098-0.168-0.453-0.531-0.939-0.793-1.287-0.066-0.087-0.132-0.173-0.198-0.259-0.233-0.3-0.456-0.607-0.669-0.922-0.236-0.36-0.35-0.608-0.388-0.759 0.99-0.765 2.205-2.19 3.122-3.335 0.451-0.564 0.853-1.090 1.153-1.493 2.512 2.288 4.022 5.476 4.203 8.871 0.883 0.070 1.645 0.186 2.3 0.322-0.204-8.243-6.941-14.863-15.224-14.863-0.539 0-1.074 0.027-1.599 0.082zM3.71 21.165c-0.908-1.772-1.395-3.729-1.425-5.72s0.398-3.962 1.252-5.761 2.11-3.376 3.67-4.61c1.561-1.234 3.385-2.092 5.33-2.506 0.346 0.581 0.642 1.191 0.882 1.824 0.478 1.273 0.67 2.578 0.222 3.537-0.343 0.729-0.83 0.935-1.687 1.156l-0.247 0.061c-0.81 0.197-2.088 0.505-2.883 1.712-0.915 1.391-0.464 2.914-0.183 3.835l0.091 0.293c0.122 0.389 0.213 0.686 0.262 0.97 0.058 0.331 0.015 0.451-0.006 0.496-0.152 0.294-0.305 0.415-0.439 0.488-0.168 0.091-0.387 0.152-0.764 0.218-0.061 0.012-0.128 0.023-0.198 0.034-0.705 0.116-1.826 0.3-2.738 1.281-0.74 0.793-1.010 1.845-1.139 2.694zM15.24 30.807c0.091-1.471 0.754-3.266 1.878-4.957 0.364-0.619 0.813-1.246 1.349-1.857 1.807-2.058 4.194-3.52 6.847-4.193 0.196-0.049 0.365-0.174 0.469-0.348s0.135-0.381 0.086-0.578c-0.049-0.196-0.174-0.365-0.347-0.469s-0.381-0.135-0.577-0.086c-2.953 0.749-5.611 2.376-7.622 4.667-0.407 0.465-0.777 0.948-1.106 1.438-0.15-0.504-0.226-1.028-0.225-1.554 0-1.398 0.711-2.917 1.838-4.121 1.285-1.369 3.005-2.25 4.866-2.491 4.264-0.564 6.911-0.091 8.472 0.346 0.211 0.059 0.4 0.178 0.546 0.342s0.241 0.366 0.275 0.583c0.034 0.217 0.005 0.438-0.084 0.639s-0.233 0.371-0.415 0.492c-0.087 0.058-0.227 0.198-0.396 0.518-0.2 0.404-0.363 0.825-0.487 1.258-0.132 0.433-0.259 0.901-0.396 1.41l-0.088 0.323c-0.169 0.625-0.356 1.296-0.582 1.961-0.445 1.314-1.072 2.717-2.127 3.794-1.095 1.118-2.581 1.814-4.567 1.814-2.024 0-3.437-0.822-4.34-1.767-0.615 1.128-0.935 2.191-0.984 2.975-0.023 0.299-0.163 0.577-0.389 0.773s-0.52 0.297-0.819 0.279c-0.299-0.018-0.579-0.153-0.779-0.376s-0.306-0.515-0.293-0.815z"></path>
</symbol>
<symbol id="icon-prioritise-2" viewBox="0 0 32 32">
<path fill="#754e29" style="fill: var(--color1, #754e29)" d="M27.139 8.792c0.001 0.811-0.112 1.618-0.335 2.398h2.625c1.421 0 2.571 1.135 2.571 2.535v7.855c0 1.953-0.558 3.866-1.609 5.52s-2.555 2.983-4.336 3.833c-1.782 0.85-3.77 1.188-5.738 0.974s-3.834-0.97-5.386-2.182l-1.92 1.893c-0.111 0.118-0.245 0.212-0.394 0.278s-0.31 0.101-0.473 0.104c-0.163 0.003-0.325-0.027-0.477-0.087s-0.289-0.15-0.404-0.264c-0.115-0.114-0.206-0.249-0.267-0.399s-0.091-0.309-0.088-0.47c0.003-0.161 0.039-0.32 0.105-0.467s0.162-0.279 0.282-0.389l1.918-1.894c-0.645-0.802-1.165-1.693-1.546-2.646-1.413 0.284-2.872 0.255-4.271-0.085s-2.705-0.984-3.822-1.884c-1.117-0.9-2.017-2.033-2.634-3.318s-0.938-2.69-0.938-4.112v-7.171c0-1.336 1.099-2.42 2.453-2.42h7.199c0.53-1.841 1.654-3.462 3.201-4.616s3.435-1.778 5.375-1.778h6.578c1.288 0 2.333 1.031 2.333 2.302v6.49zM12.107 6.685c1.345 0.337 2.601 0.953 3.685 1.808s1.97 1.928 2.6 3.148c0.997-0.3 2.034-0.452 3.077-0.451h2.771c0.311-0.762 0.471-1.576 0.47-2.398v-6.394h-6.481c-1.345 0-2.657 0.413-3.753 1.181s-1.924 1.854-2.368 3.106zM16.664 28.015c1.207 0.877 2.636 1.406 4.129 1.529s2.992-0.165 4.329-0.832c1.337-0.667 2.461-1.687 3.246-2.946s1.201-2.709 1.201-4.187v-7.855c0-0.018-0.004-0.036-0.011-0.053s-0.017-0.032-0.030-0.045c-0.013-0.013-0.028-0.023-0.045-0.030s-0.035-0.010-0.053-0.010h-7.962c-1.498 0-2.968 0.41-4.244 1.185s-2.31 1.883-2.986 3.202c-0.676 1.319-0.968 2.798-0.843 4.271s0.661 2.883 1.55 4.074l6.88-6.786c0.111-0.118 0.245-0.212 0.394-0.278s0.31-0.101 0.473-0.104c0.163-0.003 0.325 0.027 0.477 0.087s0.289 0.15 0.404 0.264c0.115 0.114 0.206 0.249 0.267 0.399s0.091 0.309 0.088 0.47c-0.003 0.161-0.039 0.32-0.105 0.467s-0.162 0.279-0.282 0.389l-6.878 6.787zM10.937 21.58c0-0.946 0.13-1.864 0.369-2.735l-4.469-4.41c-0.119-0.11-0.215-0.242-0.282-0.389s-0.102-0.306-0.105-0.467c-0.003-0.161 0.027-0.321 0.088-0.47s0.152-0.285 0.267-0.399c0.115-0.114 0.253-0.204 0.404-0.264s0.313-0.090 0.477-0.087c0.163 0.003 0.324 0.038 0.473 0.104s0.283 0.16 0.394 0.278l3.756 3.704c0.919-1.591 2.246-2.915 3.848-3.84-0.622-1.152-1.549-2.115-2.683-2.787s-2.432-1.026-3.754-1.026l-7.285 0.006c-0.002 0.002-0.004 0.005-0.005 0.008l-0.002 0.008v7.171c-0 1.055 0.235 2.098 0.689 3.053s1.115 1.801 1.937 2.476c0.822 0.675 1.784 1.164 2.819 1.431s2.116 0.306 3.168 0.115c-0.071-0.49-0.107-0.985-0.107-1.48z"></path>
</symbol>
<symbol id="icon-prioritise-3" viewBox="0 0 32 32">
<path fill="#754e29" style="fill: var(--color1, #754e29)" d="M16 0c-8.822 0-16 7.178-16 16v6.629c0 1.638 1.435 2.971 3.2 2.971h1.6c0.424 0 0.831-0.169 1.131-0.469s0.469-0.707 0.469-1.131v-8.229c0-0.424-0.169-0.831-0.469-1.131s-0.707-0.469-1.131-0.469h-1.453c0.89-6.192 6.218-10.971 12.653-10.971s11.763 4.779 12.653 10.971h-1.453c-0.424 0-0.831 0.169-1.131 0.469s-0.469 0.707-0.469 1.131v9.829c0 1.765-1.435 3.2-3.2 3.2h-3.2v-1.6h-6.4v4.8h9.6c3.53 0 6.4-2.87 6.4-6.4 1.765 0 3.2-1.333 3.2-2.971v-6.629c0-8.822-7.178-16-16-16z"></path>
</symbol>
<symbol id="icon-prioritise-4" viewBox="0 0 33 32">
<path fill="none" stroke="#754e29" style="stroke: var(--color1, #754e29)" stroke-linejoin="round" stroke-linecap="round" stroke-miterlimit="4" stroke-width="2.0513" d="M14.653 1.846c0.487-0.247 1.036-0.377 1.593-0.377s1.106 0.13 1.593 0.377l12.332 6.255c0.256 0.13 0.469 0.32 0.617 0.55s0.227 0.493 0.227 0.76v12.34c-0 0.534-0.157 1.059-0.454 1.52s-0.723 0.84-1.235 1.1l-11.487 5.829c-0.487 0.247-1.036 0.377-1.593 0.377s-1.106-0.13-1.593-0.377l-11.487-5.829c-0.511-0.259-0.938-0.639-1.235-1.099s-0.454-0.985-0.454-1.519v-12.342c0-0.267 0.078-0.529 0.226-0.76s0.361-0.42 0.617-0.55l12.332-6.255z"></path>
<path fill="none" stroke="#754e29" style="stroke: var(--color1, #754e29)" stroke-linejoin="round" stroke-linecap="butt" stroke-miterlimit="4" stroke-width="2.0513" d="M1.477 8.529l14.769 7.493M16.246 16.022l14.769-7.493M16.246 16.022v14.985"></path>
<path fill="none" stroke="#754e29" style="stroke: var(--color1, #754e29)" stroke-linejoin="round" stroke-linecap="round" stroke-miterlimit="4" stroke-width="2.0513" d="M8.862 12.275l14.769-7.493M6.4 16.513l4.923 2.506"></path>
</symbol>
<symbol id="icon-search" viewBox="0 0 31 32">
<path d="M22.315 21.043c1.714-2.143 2.739-4.862 2.739-7.82 0-6.919-5.609-12.527-12.527-12.527s-12.527 5.609-12.527 12.527c0 6.919 5.609 12.527 12.527 12.527 2.958 0 5.676-1.025 7.82-2.739l7.886 7.886c0.544 0.544 1.425 0.544 1.969 0s0.544-1.425 0-1.969l-7.886-7.886zM12.527 22.981c-5.389 0-9.758-4.369-9.758-9.758s4.369-9.758 9.758-9.758c5.389 0 9.757 4.369 9.757 9.758s-4.369 9.758-9.758 9.758z"></path>
</symbol>
<symbol id="icon-user" viewBox="0 0 26 32">
<path d="M13.091 16c4.017 0 7.273-3.582 7.273-8s-3.256-8-7.273-8c-4.017 0-7.273 3.582-7.273 8s3.256 8 7.273 8zM13.091 12.8c-2.41 0-4.364-2.149-4.364-4.8s1.954-4.8 4.364-4.8c2.41 0 4.364 2.149 4.364 4.8s-1.954 4.8-4.364 4.8z"></path>
<path d="M23.422 19.067c-1.225-1.23-3.121-1.495-4.635-0.596-0.277 0.164-0.521 0.315-0.745 0.454-0.596 0.368-1.059 0.654-1.656 0.899-0.75 0.308-1.719 0.541-3.295 0.541-1.561 0-2.547-0.22-3.307-0.517-0.673-0.263-1.204-0.593-1.904-1.028-0.137-0.085-0.28-0.174-0.431-0.267-1.519-0.933-3.47-0.716-4.736 0.564-0.552 0.558-1.198 1.28-1.715 2.066-0.493 0.75-0.996 1.747-0.996 2.818v3.637c0 2.41 1.954 4.363 4.364 4.363h17.455c2.41 0 4.364-1.953 4.364-4.363v-3.637c0-1.085-0.517-2.096-1.019-2.852-0.527-0.795-1.185-1.523-1.741-2.081zM20.272 20.973c0.348-0.206 0.787-0.156 1.090 0.148 0.487 0.489 0.998 1.064 1.377 1.636 0.405 0.61 0.534 1.028 0.534 1.244v3.637c0 0.803-0.651 1.454-1.455 1.454h-17.455c-0.804 0-1.455-0.651-1.455-1.454v-3.637c0-0.211 0.124-0.621 0.518-1.22 0.369-0.562 0.869-1.13 1.352-1.618 0.303-0.306 0.764-0.366 1.146-0.131 0.12 0.074 0.243 0.15 0.368 0.229 0.702 0.438 1.487 0.928 2.431 1.297 1.156 0.452 2.51 0.716 4.366 0.716 1.891 0 3.246-0.284 4.401-0.759 0.837-0.344 1.575-0.8 2.226-1.203 0.192-0.119 0.377-0.233 0.554-0.338z"></path>
</symbol>
<symbol id="icon-x" viewBox="0 0 39 32">
<path d="M33.392 2.139c0.62-0.142 1.052-0.281 1.406-0.427 0.496-0.205 0.907-0.45 1.557-0.864 0.546-0.347 1.246-0.378 1.822-0.079s0.935 0.879 0.935 1.51c0 1.853-0.239 3.372-0.794 4.709-0.466 1.124-1.122 2.037-1.905 2.869-0.331 5.766-2.062 10.294-4.708 13.724-2.742 3.556-6.391 5.832-10.238 7.107-3.835 1.271-7.887 1.555-11.517 1.125-3.606-0.428-6.94-1.579-9.263-3.322-0.636-0.477-0.86-1.308-0.545-2.023s1.090-1.137 1.888-1.027c2.286 0.315 4.487-0.186 6.296-0.903-0.356-0.187-0.692-0.389-1.004-0.598-1.649-1.101-2.979-2.595-3.578-3.75-0.248-0.478-0.25-1.040-0.007-1.52 0.126-0.247 0.309-0.459 0.532-0.62-2.408-1.916-3.38-4.566-3.38-6.342 0-0.528 0.252-1.026 0.684-1.351 0.181-0.137 0.386-0.236 0.602-0.296-0.18-0.509-0.32-1.023-0.427-1.52-0.472-2.206-0.431-4.696 0.083-6.677 0.176-0.678 0.761-1.185 1.478-1.282s1.424 0.236 1.786 0.841c1.916 3.202 5.449 5.159 8.737 6.318 1.546 0.545 2.978 0.892 4.051 1.106 0.232-2.093 0.837-3.818 1.767-5.189 1.227-1.808 2.938-2.878 4.775-3.355 3.169-0.823 6.686 0.115 8.965 1.837zM17.331 12.237c-1.218-0.236-2.892-0.632-4.719-1.276-2.413-0.851-5.215-2.177-7.562-4.232 0.042 0.378 0.102 0.753 0.18 1.118 0.393 1.837 1.124 2.865 1.787 3.185 0.811 0.391 1.187 1.308 0.872 2.128-0.426 1.11-1.546 1.202-2.564 0.956 0.819 1.184 2.29 2.364 4.745 2.758 0.847 0.136 1.471 0.836 1.485 1.663s-0.587 1.546-1.429 1.709l-1.547 0.299c0.237 0.198 0.493 0.393 0.766 0.575 1.239 0.827 2.483 1.184 3.557 0.925 0.804-0.194 1.641 0.174 2.016 0.887s0.19 1.581-0.447 2.093c-1.145 0.919-2.482 1.656-3.822 2.268-0.629 0.287-1.332 0.571-2.095 0.82 0.587 0.121 1.198 0.22 1.829 0.295 3.148 0.373 6.651 0.122 9.927-0.964 3.265-1.082 6.283-2.984 8.54-5.911 2.255-2.923 3.828-6.968 4.039-12.461 0.017-0.432 0.202-0.843 0.519-1.149 0.799-0.771 1.46-1.654 1.785-2.706-0.569 0.171-1.209 0.319-1.972 0.46-0.578 0.107-1.174-0.070-1.591-0.472-1.359-1.311-4.047-2.173-6.281-1.593-1.051 0.273-2.007 0.864-2.724 1.922-0.733 1.080-1.293 2.763-1.293 5.316 0 0.485-0.213 0.948-0.587 1.273-0.885 0.771-2.375 0.315-3.416 0.114z"></path>
</symbol>
<symbol id="icon-youtube" viewBox="0 0 43 32">
<path d="M16.882 7.345c-0.55-0.314-1.226-0.312-1.774 0.006s-0.885 0.904-0.885 1.538v14.222c0 0.634 0.337 1.22 0.885 1.538s1.224 0.32 1.774 0.006l12.444-7.111c0.554-0.317 0.896-0.906 0.896-1.544s-0.342-1.227-0.896-1.544l-12.444-7.111zM24.861 16l-7.083 4.048v-8.095l7.083 4.048z"></path>
<path d="M0 16c0 6.666 0 9.999 1.698 12.336 0.548 0.755 1.212 1.418 1.966 1.967 2.337 1.698 5.67 1.698 12.336 1.698h10.667c6.666 0 9.999 0 12.336-1.698 0.755-0.548 1.418-1.212 1.967-1.967 1.698-2.337 1.698-5.67 1.698-12.336s0-9.999-1.698-12.336c-0.548-0.755-1.212-1.418-1.967-1.966-2.337-1.698-5.67-1.698-12.336-1.698h-10.667c-6.666 0-9.999 0-12.336 1.698-0.755 0.548-1.418 1.212-1.966 1.966-1.698 2.337-1.698 5.67-1.698 12.336zM16 3.556h10.667c3.412 0 5.686 0.005 7.409 0.192 1.656 0.179 2.376 0.492 2.837 0.827 0.453 0.329 0.851 0.727 1.18 1.18 0.335 0.461 0.647 1.181 0.827 2.837 0.187 1.723 0.191 3.996 0.191 7.409s-0.005 5.686-0.191 7.409c-0.18 1.656-0.492 2.376-0.827 2.837-0.329 0.453-0.727 0.851-1.18 1.18-0.461 0.335-1.181 0.647-2.837 0.827-1.723 0.187-3.996 0.191-7.409 0.191h-10.667c-3.412 0-5.686-0.005-7.409-0.191-1.656-0.18-2.376-0.492-2.837-0.827-0.453-0.329-0.851-0.727-1.18-1.18-0.335-0.461-0.648-1.181-0.827-2.837-0.187-1.723-0.192-3.996-0.192-7.409s0.005-5.686 0.192-7.409c0.179-1.656 0.492-2.376 0.827-2.837 0.329-0.453 0.727-0.851 1.18-1.18 0.461-0.335 1.181-0.648 2.837-0.827 1.723-0.187 3.996-0.192 7.409-0.192z"></path>
</symbol>

<symbol id="icon-sun" viewBox="0 0 32 32">
<path d="M8.031 16.5c0 4.143 3.358 7.5 7.5 7.5s7.5-3.357 7.5-7.5-3.357-7.5-7.5-7.5c-4.142 0-7.5 3.357-7.5 7.5zM15.531 3.75l-2.109 4.219h4.219l-2.11-4.219zM24.543 7.457l-4.475 1.491 2.982 2.983 1.493-4.474zM10.994 8.948l-4.474-1.491 1.491 4.475 2.983-2.984zM6.969 14.359l-4.219 2.11 4.219 2.109v-4.219zM24.031 18.641l4.219-2.109-4.219-2.109v4.218zM15.531 29.25l2.109-4.219h-4.219l2.11 4.219zM20.068 24.052l4.475 1.491-1.492-4.475-2.983 2.984zM6.52 25.543l4.475-1.491-2.983-2.983-1.492 4.474z"></path>
</symbol>

<symbol id="icon-moon-fill" viewBox="0 0 32 32">
<path d="M24.633 22.184c-8.188 0-14.82-6.637-14.82-14.82 0-2.695 0.773-5.188 2.031-7.363-6.824 1.968-11.844 8.187-11.844 15.644 0 9.031 7.32 16.355 16.352 16.355 7.457 0 13.68-5.023 15.648-11.844-2.18 1.254-4.672 2.028-7.367 2.028z"></path>
</symbol>
</defs>
</svg>
